<svg xmlns="http://www.w3.org/2000/svg" width="1536" height="1024" viewBox="0 0 1536 1024">
  <path d="M 1168.00 894.00 L 1166.00 894.00 L 1161.00 910.00 L 1163.00 910.00 Z" fill="#000000" stroke="none" fill-rule="evenodd"/>
  <path d="M 1171.00 885.00 L 1169.00 885.00 L 1168.00 890.00 L 1170.00 890.00 Z" fill="#000000" stroke="none" fill-rule="evenodd"/>
  <path d="M 503.00 849.00 L 503.00 881.00 L 505.00 891.00 L 507.00 891.00 L 505.00 877.00 L 505.00 849.00 Z" fill="#000000" stroke="none" fill-rule="evenodd"/>
  <path d="M 1019.00 808.00 L 1019.00 810.00 L 1025.00 812.00 L 1031.00 811.00 L 1031.00 809.00 Z" fill="#000000" stroke="none" fill-rule="evenodd"/>
  <path d="M 336.00 742.00 L 336.00 779.00 L 346.00 841.00 L 345.00 890.00 L 347.00 890.00 L 348.00 839.00 L 339.00 785.00 L 339.00 751.00 L 338.00 742.00 Z" fill="#000000" stroke="none" fill-rule="evenodd"/>
  <path d="M 516.00 736.00 L 514.00 736.00 L 513.00 743.00 L 512.00 787.00 L 505.00 824.00 L 504.00 845.00 L 506.00 845.00 L 508.00 819.00 L 511.00 809.00 L 515.00 781.00 Z" fill="#000000" stroke="none" fill-rule="evenodd"/>
  <path d="M 484.00 711.00 L 493.00 821.00 L 492.00 858.00 L 488.00 880.00 L 490.00 880.00 L 495.00 855.00 L 495.00 804.00 L 491.00 755.00 L 488.00 737.00 L 487.00 712.00 Z" fill="#000000" stroke="none" fill-rule="evenodd"/>
  <path d="M 1167.00 680.00 L 1172.00 685.00 L 1174.00 690.00 L 1177.00 710.00 L 1176.00 735.00 L 1169.00 767.00 L 1169.00 791.00 L 1166.00 798.00 L 1159.00 806.00 L 1155.00 808.00 L 1145.00 808.00 L 1138.00 802.00 L 1134.00 790.00 L 1135.00 765.00 L 1141.00 748.00 L 1144.00 734.00 L 1144.00 699.00 L 1148.00 688.00 L 1153.00 682.00 L 1158.00 680.00 Z" fill="#000000" stroke="none" fill-rule="evenodd"/>
  <path d="M 1044.00 680.00 L 1056.00 681.00 L 1062.00 687.00 L 1067.00 699.00 L 1067.00 734.00 L 1069.00 745.00 L 1076.00 766.00 L 1077.00 788.00 L 1073.00 802.00 L 1066.00 808.00 L 1054.00 807.00 L 1046.00 799.00 L 1042.00 789.00 L 1042.00 768.00 L 1035.00 734.00 L 1035.00 702.00 L 1038.00 687.00 L 1040.00 683.00 Z" fill="#000000" stroke="none" fill-rule="evenodd"/>
  <path d="M 350.00 675.00 L 349.00 683.00 L 352.00 700.00 L 359.00 708.00 L 365.00 711.00 L 356.00 806.00 L 357.00 863.00 L 362.00 882.00 L 364.00 882.00 L 359.00 858.00 L 359.00 799.00 L 361.00 770.00 L 366.00 733.00 L 367.00 707.00 L 360.00 705.00 L 355.00 700.00 L 352.00 687.00 L 352.00 675.00 Z" fill="#000000" stroke="none" fill-rule="evenodd"/>
  <path d="M 1130.00 652.00 L 1130.00 656.00 L 1132.00 656.00 L 1132.00 652.00 Z" fill="#000000" stroke="none" fill-rule="evenodd"/>
  <path d="M 1131.00 646.00 L 1131.00 650.00 L 1133.00 650.00 L 1133.00 646.00 Z" fill="#000000" stroke="none" fill-rule="evenodd"/>
  <path d="M 1077.00 640.00 L 1077.00 644.00 L 1079.00 644.00 L 1079.00 640.00 Z" fill="#000000" stroke="none" fill-rule="evenodd"/>
  <path d="M 1076.00 633.00 L 1076.00 637.00 L 1078.00 637.00 L 1078.00 633.00 Z" fill="#000000" stroke="none" fill-rule="evenodd"/>
  <path d="M 1136.00 626.00 L 1134.00 626.00 L 1132.00 643.00 L 1134.00 643.00 Z" fill="#000000" stroke="none" fill-rule="evenodd"/>
  <path d="M 200.00 546.00 L 198.00 546.00 L 193.00 557.00 L 193.00 563.00 L 195.00 565.00 L 199.00 565.00 L 202.00 563.00 L 202.00 561.00 L 198.00 563.00 L 195.00 561.00 Z" fill="#000000" stroke="none" fill-rule="evenodd"/>
  <path d="M 1068.00 542.00 L 1070.00 548.00 L 1074.00 580.00 L 1074.00 608.00 L 1072.00 616.00 L 1062.00 629.00 L 1058.00 639.00 L 1056.00 651.00 L 1056.00 667.00 L 1058.00 674.00 L 1057.00 677.00 L 1047.00 658.00 L 1041.00 637.00 L 1039.00 625.00 L 1039.00 600.00 L 1044.00 578.00 L 1052.00 559.00 L 1056.00 544.00 L 1058.00 542.00 Z" fill="#000000" stroke="none" fill-rule="evenodd"/>
  <path d="M 1291.00 542.00 L 1290.00 546.00 L 1293.00 559.00 L 1295.00 559.00 L 1294.00 552.00 L 1296.00 552.00 L 1304.00 574.00 L 1309.00 575.00 L 1310.00 573.00 L 1312.00 573.00 L 1313.00 570.00 L 1316.00 575.00 L 1322.00 575.00 L 1324.00 572.00 L 1322.00 563.00 L 1320.00 563.00 L 1321.00 572.00 L 1318.00 573.00 L 1315.00 570.00 L 1303.00 541.00 L 1301.00 541.00 L 1310.00 568.00 L 1309.00 573.00 L 1305.00 571.00 L 1295.00 543.00 Z" fill="#000000" stroke="none" fill-rule="evenodd"/>
  <path d="M 227.00 535.00 L 223.00 537.00 L 220.00 546.00 L 227.00 542.00 Z" fill="#000000" stroke="none" fill-rule="evenodd"/>
  <path d="M 636.00 533.00 L 636.00 537.00 L 641.00 551.00 L 645.00 552.00 L 649.00 562.00 L 652.00 565.00 L 657.00 565.00 L 659.00 563.00 L 659.00 555.00 L 656.00 549.00 L 654.00 549.00 L 657.00 557.00 L 657.00 561.00 L 654.00 563.00 L 651.00 560.00 L 638.00 533.00 Z" fill="#000000" stroke="none" fill-rule="evenodd"/>
  <path d="M 217.00 533.00 L 214.00 534.00 L 203.00 556.00 L 203.00 559.00 L 209.00 565.00 L 213.00 564.00 L 219.00 555.00 L 220.00 549.00 L 218.00 549.00 L 214.00 559.00 L 211.00 562.00 L 207.00 560.00 L 209.00 552.00 L 216.00 539.00 Z" fill="#000000" stroke="none" fill-rule="evenodd"/>
  <path d="M 1102.00 530.00 L 1103.00 541.00 L 1099.00 584.00 L 1088.00 624.00 L 1083.00 676.00 L 1076.00 700.00 L 1071.00 711.00 L 1068.00 693.00 L 1061.00 681.00 L 1059.00 672.00 L 1059.00 649.00 L 1061.00 639.00 L 1066.00 628.00 L 1072.00 620.00 L 1075.00 619.00 L 1077.00 606.00 L 1077.00 583.00 L 1071.00 543.00 L 1088.00 540.00 L 1097.00 535.00 Z" fill="#000000" stroke="none" fill-rule="evenodd"/>
  <path d="M 1109.00 529.00 L 1113.00 534.00 L 1128.00 541.00 L 1155.00 543.00 L 1155.00 547.00 L 1165.00 572.00 L 1171.00 594.00 L 1171.00 632.00 L 1163.00 660.00 L 1156.00 675.00 L 1153.00 675.00 L 1155.00 667.00 L 1154.00 644.00 L 1149.00 629.00 L 1141.00 619.00 L 1137.00 611.00 L 1137.00 580.00 L 1141.00 553.00 L 1141.00 544.00 L 1139.00 544.00 L 1134.00 584.00 L 1134.00 607.00 L 1136.00 613.00 L 1135.00 624.00 L 1137.00 624.00 L 1138.00 620.00 L 1147.00 631.00 L 1151.00 642.00 L 1152.00 650.00 L 1152.00 672.00 L 1150.00 681.00 L 1143.00 693.00 L 1140.00 710.00 L 1132.00 691.00 L 1128.00 676.00 L 1123.00 626.00 L 1111.00 581.00 L 1108.00 542.00 Z" fill="#000000" stroke="none" fill-rule="evenodd"/>
  <path d="M 646.00 530.00 L 646.00 533.00 L 651.00 544.00 L 655.00 543.00 L 654.00 538.00 L 649.00 531.00 Z" fill="#000000" stroke="none" fill-rule="evenodd"/>
  <path d="M 206.00 530.00 L 203.00 531.00 L 198.00 539.00 L 200.00 543.00 L 202.00 543.00 L 204.00 539.00 Z" fill="#000000" stroke="none" fill-rule="evenodd"/>
  <path d="M 475.00 462.00 L 476.00 487.00 L 464.00 536.00 L 456.00 584.00 L 449.00 608.00 L 451.00 608.00 L 458.00 581.00 L 459.00 580.00 L 461.00 582.00 L 467.00 604.00 L 478.00 630.00 L 477.00 651.00 L 471.00 665.00 L 473.00 665.00 L 478.00 656.00 L 486.00 653.00 L 492.00 657.00 L 497.00 670.00 L 500.00 672.00 L 498.00 696.00 L 491.00 705.00 L 486.00 707.00 L 486.00 709.00 L 493.00 707.00 L 500.00 699.00 L 502.00 689.00 L 502.00 670.00 L 507.00 661.00 L 509.00 661.00 L 509.00 680.00 L 521.00 734.00 L 524.00 767.00 L 522.00 792.00 L 509.00 861.00 L 509.00 895.00 L 511.00 899.00 L 512.00 913.00 L 531.00 938.00 L 536.00 950.00 L 532.00 955.00 L 522.00 958.00 L 505.00 958.00 L 490.00 956.00 L 485.00 954.00 L 479.00 946.00 L 479.00 869.00 L 467.00 805.00 L 457.00 773.00 L 456.00 758.00 L 458.00 741.00 L 464.00 717.00 L 466.00 717.00 L 473.00 732.00 L 477.00 752.00 L 479.00 815.00 L 482.00 854.00 L 484.00 854.00 L 481.00 805.00 L 480.00 755.00 L 476.00 732.00 L 458.00 694.00 L 452.00 665.00 L 455.00 664.00 L 459.00 669.00 L 466.00 673.00 L 466.00 684.00 L 469.00 695.00 L 475.00 704.00 L 477.00 704.00 L 477.00 702.00 L 470.00 690.00 L 468.00 677.00 L 469.00 669.00 L 464.00 669.00 L 458.00 664.00 L 456.00 664.00 L 452.00 659.00 L 448.00 618.00 L 450.00 610.00 L 448.00 610.00 L 446.00 607.00 L 446.00 602.00 L 439.00 579.00 L 431.00 532.00 L 431.00 516.00 L 436.00 513.00 L 454.00 494.00 Z" fill="#000000" stroke="none" fill-rule="evenodd"/>
  <path d="M 376.00 461.00 L 385.00 477.00 L 402.00 501.00 L 412.00 511.00 L 420.00 516.00 L 419.00 540.00 L 415.00 565.00 L 404.00 609.00 L 402.00 609.00 L 395.00 581.00 L 393.00 581.00 L 393.00 586.00 L 402.00 617.00 L 400.00 657.00 L 395.00 663.00 L 388.00 668.00 L 381.00 668.00 L 383.00 672.00 L 381.00 690.00 L 374.00 702.00 L 374.00 704.00 L 376.00 704.00 L 381.00 697.00 L 385.00 684.00 L 386.00 673.00 L 397.00 664.00 L 398.00 672.00 L 392.00 697.00 L 375.00 734.00 L 371.00 755.00 L 370.00 816.00 L 368.00 835.00 L 368.00 854.00 L 370.00 854.00 L 374.00 788.00 L 374.00 752.00 L 376.00 739.00 L 383.00 720.00 L 386.00 716.00 L 394.00 750.00 L 394.00 774.00 L 386.00 797.00 L 372.00 868.00 L 372.00 894.00 L 374.00 898.00 L 371.00 922.00 L 372.00 946.00 L 370.00 951.00 L 362.00 956.00 L 349.00 958.00 L 326.00 958.00 L 320.00 956.00 L 316.00 952.00 L 316.00 947.00 L 321.00 937.00 L 340.00 912.00 L 341.00 898.00 L 343.00 892.00 L 342.00 858.00 L 327.00 776.00 L 328.00 745.00 L 332.00 722.00 L 334.00 719.00 L 341.00 690.00 L 342.00 661.00 L 344.00 661.00 L 349.00 671.00 L 351.00 671.00 L 355.00 668.00 L 357.00 661.00 L 362.00 654.00 L 369.00 654.00 L 374.00 658.00 L 377.00 664.00 L 380.00 665.00 L 374.00 651.00 L 373.00 630.00 L 386.00 598.00 L 391.00 579.00 L 393.00 578.00 L 387.00 536.00 L 375.00 489.00 L 374.00 462.00 Z" fill="#000000" stroke="none" fill-rule="evenodd"/>
  <path d="M 485.00 447.00 L 494.00 466.00 L 499.00 483.00 L 502.00 519.00 L 499.00 550.00 L 495.00 571.00 L 481.00 623.00 L 479.00 625.00 L 464.00 587.00 L 462.00 578.00 L 462.00 563.00 L 468.00 530.00 L 478.00 491.00 L 478.00 456.00 Z" fill="#000000" stroke="none" fill-rule="evenodd"/>
  <path d="M 366.00 447.00 L 369.00 449.00 L 373.00 456.00 L 371.00 464.00 L 372.00 487.00 L 383.00 530.00 L 389.00 565.00 L 389.00 577.00 L 387.00 587.00 L 372.00 625.00 L 370.00 624.00 L 365.00 603.00 L 358.00 581.00 L 351.00 545.00 L 349.00 523.00 L 349.00 504.00 L 352.00 482.00 L 358.00 464.00 Z" fill="#000000" stroke="none" fill-rule="evenodd"/>
  <path d="M 1054.00 439.00 L 1052.00 439.00 L 1050.00 443.00 L 1049.00 464.00 L 1046.00 474.00 L 1033.00 494.00 L 1029.00 503.00 L 1029.00 507.00 L 1031.00 507.00 L 1033.00 499.00 L 1044.00 484.00 L 1048.00 476.00 L 1052.00 462.00 L 1052.00 447.00 Z" fill="#000000" stroke="none" fill-rule="evenodd"/>
  <path d="M 1030.00 453.00 L 1033.00 448.00 L 1043.00 439.00 L 1050.00 436.00 L 1061.00 435.00 L 1072.00 441.00 L 1090.00 455.00 L 1099.00 465.00 L 1104.00 477.00 L 1104.00 520.00 L 1106.00 520.00 L 1107.00 476.00 L 1112.00 464.00 L 1120.00 455.00 L 1141.00 439.00 L 1150.00 435.00 L 1162.00 436.00 L 1170.00 440.00 L 1179.00 449.00 L 1183.00 458.00 L 1185.00 474.00 L 1185.00 500.00 L 1183.00 507.00 L 1178.00 494.00 L 1166.00 476.00 L 1162.00 462.00 L 1161.00 443.00 L 1159.00 439.00 L 1157.00 439.00 L 1159.00 446.00 L 1161.00 470.00 L 1165.00 480.00 L 1179.00 502.00 L 1181.00 511.00 L 1180.00 520.00 L 1177.00 525.00 L 1167.00 534.00 L 1159.00 538.00 L 1148.00 540.00 L 1139.00 540.00 L 1122.00 536.00 L 1111.00 529.00 L 1106.00 522.00 L 1104.00 522.00 L 1102.00 526.00 L 1094.00 534.00 L 1082.00 539.00 L 1063.00 540.00 L 1047.00 536.00 L 1038.00 530.00 L 1033.00 524.00 L 1030.00 518.00 L 1030.00 509.00 L 1027.00 508.00 L 1026.00 476.00 Z" fill="#000000" stroke="none" fill-rule="evenodd"/>
  <path d="M 356.00 435.00 L 364.00 445.00 L 356.00 462.00 L 349.00 487.00 L 347.00 489.00 L 347.00 535.00 L 353.00 571.00 L 370.00 631.00 L 370.00 643.00 L 372.00 651.00 L 360.00 652.00 L 356.00 656.00 L 353.00 666.00 L 351.00 668.00 L 346.00 661.00 L 339.00 646.00 L 334.00 625.00 L 330.00 594.00 L 330.00 565.00 L 333.00 544.00 L 339.00 519.00 L 340.00 507.00 L 343.00 502.00 L 342.00 493.00 L 347.00 452.00 L 353.00 436.00 Z" fill="#000000" stroke="none" fill-rule="evenodd"/>
  <path d="M 387.00 423.00 L 399.00 427.00 L 415.00 427.00 L 422.00 425.00 L 423.00 426.00 L 423.00 515.00 L 421.00 515.00 L 406.00 501.00 L 399.00 489.00 L 388.00 446.00 L 386.00 432.00 Z" fill="#000000" stroke="none" fill-rule="evenodd"/>
  <path d="M 464.00 422.00 L 465.00 424.00 L 462.00 450.00 L 455.00 480.00 L 446.00 499.00 L 434.00 511.00 L 427.00 515.00 L 426.00 426.00 L 428.00 425.00 L 434.00 427.00 L 448.00 427.00 L 461.00 424.00 Z" fill="#000000" stroke="none" fill-rule="evenodd"/>
  <path d="M 382.00 385.00 L 386.00 384.00 L 397.00 387.00 L 410.00 387.00 L 422.00 385.00 L 424.00 421.00 L 420.00 424.00 L 397.00 424.00 L 386.00 420.00 L 384.00 416.00 Z" fill="#000000" stroke="none" fill-rule="evenodd"/>
  <path d="M 1243.00 384.00 L 1239.00 385.00 L 1239.00 387.00 L 1243.00 386.00 Z" fill="#000000" stroke="none" fill-rule="evenodd"/>
  <path d="M 302.00 361.00 L 300.00 361.00 L 298.00 365.00 L 300.00 365.00 Z" fill="#000000" stroke="none" fill-rule="evenodd"/>
  <path d="M 1111.00 349.00 L 1112.00 353.00 L 1122.00 368.00 L 1138.00 399.00 L 1150.00 430.00 L 1152.00 430.00 L 1146.00 411.00 L 1131.00 379.00 L 1113.00 349.00 Z" fill="#000000" stroke="none" fill-rule="evenodd"/>
  <path d="M 1099.00 349.00 L 1097.00 349.00 L 1096.00 353.00 L 1092.00 357.00 L 1072.00 394.00 L 1060.00 422.00 L 1059.00 428.00 L 1061.00 428.00 L 1071.00 402.00 Z" fill="#000000" stroke="none" fill-rule="evenodd"/>
  <path d="M 499.00 347.00 L 497.00 347.00 L 495.00 351.00 L 497.00 351.00 Z" fill="#000000" stroke="none" fill-rule="evenodd"/>
  <path d="M 380.00 345.00 L 384.00 344.00 L 391.00 346.00 L 412.00 346.00 L 422.00 344.00 L 423.00 382.00 L 416.00 384.00 L 394.00 384.00 L 383.00 381.00 L 381.00 375.00 Z" fill="#000000" stroke="none" fill-rule="evenodd"/>
  <path d="M 468.00 343.00 L 468.00 374.00 L 467.00 379.00 L 461.00 382.00 L 461.00 384.00 L 467.00 384.00 L 465.00 419.00 L 451.00 424.00 L 427.00 423.00 L 426.00 386.00 L 430.00 385.00 L 437.00 387.00 L 449.00 387.00 L 459.00 385.00 L 459.00 383.00 L 432.00 384.00 L 426.00 381.00 L 425.00 345.00 L 429.00 344.00 L 436.00 346.00 L 457.00 346.00 Z" fill="#000000" stroke="none" fill-rule="evenodd"/>
  <path d="M 1218.00 315.00 L 1216.00 352.00 L 1219.00 353.00 L 1221.00 319.00 L 1228.00 324.00 L 1234.00 324.00 L 1236.00 326.00 L 1247.00 350.00 L 1251.00 363.00 L 1252.00 375.00 L 1245.00 382.00 L 1245.00 384.00 L 1249.00 385.00 L 1251.00 415.00 L 1259.00 441.00 L 1271.00 468.00 L 1273.00 468.00 L 1260.00 436.00 L 1254.00 416.00 L 1251.00 381.00 L 1254.00 378.00 L 1255.00 370.00 L 1251.00 353.00 L 1238.00 323.00 L 1236.00 321.00 L 1226.00 321.00 L 1221.00 315.00 Z" fill="#000000" stroke="none" fill-rule="evenodd"/>
  <path d="M 425.00 302.00 L 427.00 301.00 L 444.00 307.00 L 465.00 308.00 L 469.00 339.00 L 467.00 341.00 L 452.00 344.00 L 427.00 342.00 L 425.00 340.00 Z" fill="#000000" stroke="none" fill-rule="evenodd"/>
  <path d="M 423.00 302.00 L 423.00 340.00 L 421.00 342.00 L 395.00 344.00 L 383.00 342.00 L 380.00 340.00 L 382.00 315.00 L 384.00 308.00 L 402.00 308.00 L 421.00 301.00 Z" fill="#000000" stroke="none" fill-rule="evenodd"/>
  <path d="M 519.00 280.00 L 520.00 282.00 L 514.00 309.00 L 501.00 349.00 L 498.00 363.00 L 496.00 385.00 L 498.00 429.00 L 492.00 435.00 L 492.00 437.00 L 494.00 437.00 L 497.00 434.00 L 504.00 451.00 L 509.00 496.00 L 507.00 501.00 L 510.00 505.00 L 512.00 523.00 L 518.00 547.00 L 521.00 568.00 L 520.00 600.00 L 515.00 632.00 L 509.00 653.00 L 502.00 666.00 L 500.00 667.00 L 494.00 655.00 L 491.00 652.00 L 480.00 652.00 L 479.00 649.00 L 481.00 641.00 L 481.00 628.00 L 494.00 587.00 L 501.00 555.00 L 504.00 529.00 L 504.00 489.00 L 502.00 487.00 L 494.00 459.00 L 487.00 446.00 L 487.00 442.00 L 485.00 442.00 L 480.00 448.00 L 472.00 464.00 L 466.00 471.00 L 457.00 487.00 L 454.00 487.00 L 458.00 478.00 L 465.00 448.00 L 469.00 411.00 L 469.00 381.00 L 471.00 372.00 L 472.00 350.00 L 471.00 326.00 L 468.00 309.00 L 489.00 303.00 L 506.00 293.00 Z" fill="#000000" stroke="none" fill-rule="evenodd"/>
  <path d="M 331.00 279.00 L 341.00 289.00 L 342.00 292.00 L 353.00 300.00 L 367.00 306.00 L 381.00 309.00 L 378.00 326.00 L 377.00 359.00 L 380.00 380.00 L 380.00 399.00 L 384.00 438.00 L 389.00 464.00 L 395.00 483.00 L 394.00 485.00 L 379.00 461.00 L 377.00 460.00 L 372.00 450.00 L 369.00 448.00 L 367.00 443.00 L 353.00 430.00 L 354.00 391.00 L 351.00 359.00 L 337.00 315.00 L 330.00 282.00 Z" fill="#000000" stroke="none" fill-rule="evenodd"/>
  <path d="M 994.00 262.00 L 1003.00 268.00 L 1004.00 287.00 L 1009.00 309.00 L 1007.00 326.00 L 1002.00 342.00 L 996.00 354.00 L 994.00 351.00 L 993.00 315.00 L 989.00 316.00 L 980.00 322.00 L 975.00 321.00 L 970.00 329.00 L 957.00 365.00 L 957.00 377.00 L 960.00 381.00 L 960.00 394.00 L 956.00 420.00 L 950.00 439.00 L 940.00 461.00 L 940.00 463.00 L 942.00 463.00 L 956.00 430.00 L 962.00 401.00 L 962.00 385.00 L 966.00 384.00 L 967.00 386.00 L 969.00 386.00 L 969.00 384.00 L 967.00 384.00 L 959.00 376.00 L 959.00 368.00 L 965.00 348.00 L 975.00 325.00 L 983.00 324.00 L 988.00 320.00 L 991.00 320.00 L 992.00 360.00 L 978.00 370.00 L 974.00 381.00 L 974.00 385.00 L 976.00 385.00 L 977.00 378.00 L 984.00 367.00 L 990.00 364.00 L 991.00 365.00 L 990.00 384.00 L 986.00 401.00 L 975.00 426.00 L 957.00 455.00 L 939.00 490.00 L 939.00 515.00 L 928.00 541.00 L 924.00 563.00 L 922.00 567.00 L 918.00 567.00 L 919.00 556.00 L 916.00 555.00 L 917.00 552.00 L 918.00 554.00 L 920.00 554.00 L 921.00 542.00 L 918.00 542.00 L 907.00 571.00 L 905.00 573.00 L 902.00 572.00 L 902.00 568.00 L 910.00 546.00 L 910.00 541.00 L 908.00 541.00 L 906.00 543.00 L 899.00 564.00 L 895.00 572.00 L 892.00 573.00 L 890.00 570.00 L 900.00 543.00 L 900.00 538.00 L 896.00 540.00 L 887.00 559.00 L 882.00 564.00 L 880.00 562.00 L 880.00 559.00 L 890.00 541.00 L 893.00 532.00 L 893.00 524.00 L 890.00 524.00 L 880.00 531.00 L 876.00 531.00 L 874.00 528.00 L 893.00 511.00 L 897.00 504.00 L 914.00 485.00 L 918.00 472.00 L 923.00 445.00 L 925.00 419.00 L 929.00 394.00 L 937.00 375.00 L 949.00 357.00 L 949.00 355.00 L 951.00 355.00 L 951.00 360.00 L 953.00 360.00 L 955.00 316.00 L 961.00 290.00 L 969.00 277.00 L 978.00 270.00 Z" fill="#000000" stroke="none" fill-rule="evenodd"/>
  <path d="M 531.00 260.00 L 534.00 263.00 L 536.00 263.00 L 540.00 268.00 L 565.00 283.00 L 572.00 297.00 L 575.00 307.00 L 576.00 342.00 L 568.00 364.00 L 563.00 373.00 L 558.00 366.00 L 538.00 348.00 L 526.00 327.00 L 522.00 315.00 L 519.00 295.00 L 522.00 285.00 L 523.00 274.00 Z" fill="#000000" stroke="none" fill-rule="evenodd"/>
  <path d="M 421.00 216.00 L 421.00 218.00 L 427.00 218.00 L 427.00 216.00 Z" fill="#000000" stroke="none" fill-rule="evenodd"/>
  <path d="M 1049.00 213.00 L 1050.00 216.00 L 1056.00 219.00 L 1062.00 225.00 L 1065.00 232.00 L 1064.00 259.00 L 1066.00 283.00 L 1060.00 290.00 L 1055.00 293.00 L 1044.00 296.00 L 1034.00 294.00 L 1017.00 279.00 L 1015.00 279.00 L 1015.00 281.00 L 1026.00 292.00 L 1039.00 298.00 L 1052.00 297.00 L 1059.00 294.00 L 1066.00 288.00 L 1070.00 302.00 L 1074.00 310.00 L 1095.00 341.00 L 1098.00 343.00 L 1098.00 345.00 L 1100.00 345.00 L 1095.00 335.00 L 1074.00 304.00 L 1070.00 294.00 L 1067.00 262.00 L 1067.00 229.00 L 1064.00 223.00 L 1058.00 217.00 Z" fill="#000000" stroke="none" fill-rule="evenodd"/>
  <path d="M 1163.00 214.00 L 1172.00 209.00 L 1182.00 206.00 L 1210.00 207.00 L 1226.00 214.00 L 1235.00 223.00 L 1242.00 236.00 L 1246.00 256.00 L 1246.00 275.00 L 1245.00 276.00 L 1237.00 269.00 L 1215.00 258.00 Z" fill="#000000" stroke="none" fill-rule="evenodd"/>
  <path d="M 483.00 211.00 L 492.00 207.00 L 502.00 205.00 L 523.00 205.00 L 532.00 207.00 L 541.00 212.00 L 552.00 224.00 L 561.00 242.00 L 564.00 255.00 L 564.00 277.00 L 562.00 278.00 L 554.00 274.00 L 539.00 263.00 L 537.00 263.00 L 498.00 220.00 Z" fill="#000000" stroke="none" fill-rule="evenodd"/>
  <path d="M 1093.00 199.00 L 1075.00 206.00 L 1060.00 209.00 L 1060.00 211.00 L 1083.00 206.00 L 1092.00 202.00 Z" fill="#000000" stroke="none" fill-rule="evenodd"/>
  <path d="M 1114.00 198.00 L 1114.00 200.00 L 1127.00 206.00 L 1141.00 210.00 L 1151.00 211.00 L 1151.00 209.00 L 1135.00 206.00 L 1119.00 200.00 L 1117.00 198.00 Z" fill="#000000" stroke="none" fill-rule="evenodd"/>
  <path d="M 1104.00 161.00 L 1104.00 448.00 L 1106.00 448.00 L 1106.00 161.00 Z" fill="#000000" stroke="none" fill-rule="evenodd"/>
  <path d="M 398.00 126.00 L 399.00 132.00 L 404.00 136.00 L 415.00 136.00 L 425.00 131.00 L 434.00 136.00 L 445.00 136.00 L 449.00 134.00 L 452.00 130.00 L 452.00 127.00 L 445.00 129.00 L 434.00 121.00 L 416.00 121.00 L 404.00 130.00 L 400.00 126.00 Z" fill="#000000" stroke="none" fill-rule="evenodd"/>
  <path d="M 412.00 39.00 L 435.00 39.00 L 446.00 42.00 L 453.00 46.00 L 460.00 53.00 L 466.00 64.00 L 467.00 102.00 L 469.00 102.00 L 472.00 98.00 L 474.00 98.00 L 476.00 102.00 L 474.00 115.00 L 469.00 125.00 L 466.00 127.00 L 464.00 124.00 L 462.00 124.00 L 460.00 133.00 L 452.00 145.00 L 438.00 157.00 L 430.00 161.00 L 415.00 160.00 L 401.00 150.00 L 392.00 140.00 L 386.00 124.00 L 381.00 126.00 L 375.00 118.00 L 373.00 110.00 L 373.00 99.00 L 376.00 98.00 L 379.00 102.00 L 381.00 102.00 L 382.00 66.00 L 386.00 56.00 L 391.00 49.00 L 396.00 45.00 Z" fill="#000000" stroke="none" fill-rule="evenodd"/>
  <path d="M 1099.00 37.00 L 1081.00 41.00 L 1072.00 46.00 L 1070.00 50.00 L 1066.00 53.00 L 1060.00 67.00 L 1059.00 94.00 L 1054.00 95.00 L 1051.00 100.00 L 1051.00 108.00 L 1058.00 125.00 L 1063.00 128.00 L 1066.00 128.00 L 1072.00 139.00 L 1072.00 170.00 L 1070.00 176.00 L 1063.00 183.00 L 1029.00 200.00 L 1017.00 203.00 L 1001.00 204.00 L 987.00 209.00 L 975.00 219.00 L 968.00 231.00 L 962.00 255.00 L 963.00 280.00 L 957.00 293.00 L 953.00 310.00 L 951.00 348.00 L 933.00 376.00 L 928.00 388.00 L 923.00 411.00 L 920.00 447.00 L 911.00 485.00 L 903.00 492.00 L 890.00 510.00 L 873.00 525.00 L 872.00 532.00 L 878.00 534.00 L 890.00 528.00 L 891.00 529.00 L 887.00 542.00 L 878.00 558.00 L 878.00 565.00 L 884.00 566.00 L 887.00 560.00 L 889.00 559.00 L 891.00 553.00 L 894.00 553.00 L 888.00 568.00 L 888.00 573.00 L 890.00 575.00 L 896.00 575.00 L 899.00 570.00 L 901.00 575.00 L 907.00 575.00 L 911.00 569.00 L 916.00 555.00 L 916.00 569.00 L 919.00 571.00 L 924.00 569.00 L 929.00 552.00 L 930.00 543.00 L 939.00 524.00 L 942.00 513.00 L 942.00 490.00 L 960.00 455.00 L 983.00 417.00 L 991.00 393.00 L 994.00 362.00 L 1002.00 349.00 L 1011.00 321.00 L 1013.00 323.00 L 1019.00 341.00 L 1032.00 366.00 L 1035.00 376.00 L 1036.00 398.00 L 1031.00 428.00 L 1031.00 439.00 L 1033.00 439.00 L 1033.00 430.00 L 1037.00 415.00 L 1039.00 397.00 L 1038.00 378.00 L 1035.00 366.00 L 1016.00 327.00 L 1011.00 309.00 L 1007.00 288.00 L 1006.00 273.00 L 1007.00 272.00 L 1012.00 277.00 L 1014.00 277.00 L 1014.00 275.00 L 997.00 260.00 L 997.00 258.00 L 1007.00 252.00 L 1030.00 231.00 L 1037.00 227.00 L 1043.00 220.00 L 1047.00 218.00 L 1047.00 216.00 L 1045.00 216.00 L 1029.00 231.00 L 1022.00 235.00 L 1016.00 242.00 L 1014.00 242.00 L 1000.00 255.00 L 998.00 255.00 L 997.00 258.00 L 994.00 258.00 L 979.00 266.00 L 968.00 274.00 L 967.00 277.00 L 965.00 276.00 L 965.00 251.00 L 967.00 241.00 L 975.00 224.00 L 981.00 217.00 L 993.00 209.00 L 1004.00 206.00 L 1018.00 205.00 L 1032.00 207.00 L 1047.00 213.00 L 1047.00 211.00 L 1028.00 203.00 L 1047.00 195.00 L 1070.00 181.00 L 1075.00 170.00 L 1076.00 142.00 L 1084.00 149.00 L 1100.00 157.00 L 1109.00 157.00 L 1116.00 155.00 L 1131.00 145.00 L 1131.00 143.00 L 1129.00 143.00 L 1127.00 146.00 L 1111.00 154.00 L 1097.00 153.00 L 1078.00 141.00 L 1071.00 133.00 L 1068.00 125.00 L 1063.00 125.00 L 1059.00 121.00 L 1054.00 108.00 L 1054.00 99.00 L 1056.00 97.00 L 1062.00 99.00 L 1062.00 73.00 L 1065.00 61.00 L 1070.00 51.00 L 1086.00 42.00 L 1095.00 40.00 L 1114.00 40.00 L 1131.00 45.00 L 1137.00 49.00 L 1143.00 56.00 L 1148.00 73.00 L 1147.00 101.00 L 1154.00 97.00 L 1156.00 100.00 L 1156.00 106.00 L 1151.00 121.00 L 1147.00 125.00 L 1142.00 125.00 L 1139.00 133.00 L 1133.00 140.00 L 1133.00 142.00 L 1135.00 143.00 L 1136.00 173.00 L 1140.00 181.00 L 1148.00 187.00 L 1167.00 197.00 L 1183.00 203.00 L 1162.00 211.00 L 1160.00 214.00 L 1153.00 217.00 L 1145.00 226.00 L 1143.00 232.00 L 1143.00 275.00 L 1140.00 295.00 L 1134.00 309.00 L 1115.00 336.00 L 1115.00 338.00 L 1113.00 339.00 L 1113.00 341.00 L 1115.00 341.00 L 1115.00 339.00 L 1118.00 337.00 L 1134.00 314.00 L 1141.00 301.00 L 1143.00 291.00 L 1145.00 288.00 L 1150.00 293.00 L 1162.00 298.00 L 1175.00 297.00 L 1184.00 292.00 L 1198.00 278.00 L 1198.00 276.00 L 1196.00 276.00 L 1181.00 291.00 L 1173.00 295.00 L 1161.00 295.00 L 1146.00 287.00 L 1144.00 282.00 L 1146.00 266.00 L 1146.00 231.00 L 1148.00 226.00 L 1161.00 214.00 L 1163.00 218.00 L 1214.00 260.00 L 1202.00 270.00 L 1202.00 272.00 L 1205.00 273.00 L 1202.00 300.00 L 1198.00 317.00 L 1192.00 334.00 L 1176.00 366.00 L 1173.00 377.00 L 1172.00 397.00 L 1175.00 421.00 L 1178.00 431.00 L 1178.00 441.00 L 1177.00 442.00 L 1161.00 433.00 L 1147.00 433.00 L 1133.00 441.00 L 1113.00 458.00 L 1105.00 472.00 L 1101.00 463.00 L 1093.00 454.00 L 1077.00 441.00 L 1063.00 433.00 L 1051.00 433.00 L 1040.00 438.00 L 1031.00 445.00 L 1027.00 452.00 L 1024.00 468.00 L 1021.00 504.00 L 1010.00 560.00 L 1011.00 601.00 L 1018.00 640.00 L 1024.00 664.00 L 1026.00 685.00 L 1015.00 717.00 L 1008.00 743.00 L 1005.00 761.00 L 1005.00 780.00 L 1010.00 805.00 L 1026.00 856.00 L 1028.00 866.00 L 1030.00 898.00 L 1017.00 906.00 L 1009.00 913.00 L 1006.00 919.00 L 1006.00 924.00 L 1012.00 934.00 L 1020.00 939.00 L 1030.00 949.00 L 1037.00 952.00 L 1047.00 954.00 L 1059.00 953.00 L 1066.00 948.00 L 1069.00 942.00 L 1069.00 932.00 L 1064.00 919.00 L 1062.00 919.00 L 1062.00 923.00 L 1066.00 931.00 L 1067.00 939.00 L 1063.00 947.00 L 1056.00 951.00 L 1044.00 951.00 L 1034.00 948.00 L 1024.00 938.00 L 1018.00 935.00 L 1009.00 925.00 L 1009.00 919.00 L 1011.00 915.00 L 1015.00 911.00 L 1027.00 904.00 L 1029.00 905.00 L 1027.00 919.00 L 1029.00 919.00 L 1032.00 903.00 L 1032.00 877.00 L 1027.00 848.00 L 1013.00 807.00 L 1013.00 801.00 L 1011.00 798.00 L 1008.00 783.00 L 1008.00 758.00 L 1011.00 742.00 L 1028.00 688.00 L 1027.00 667.00 L 1016.00 616.00 L 1013.00 594.00 L 1013.00 558.00 L 1023.00 504.00 L 1025.00 504.00 L 1025.00 511.00 L 1029.00 523.00 L 1034.00 530.00 L 1043.00 537.00 L 1054.00 542.00 L 1052.00 551.00 L 1042.00 575.00 L 1036.00 603.00 L 1036.00 622.00 L 1039.00 640.00 L 1043.00 655.00 L 1054.00 677.00 L 1042.00 678.00 L 1036.00 685.00 L 1032.00 706.00 L 1032.00 731.00 L 1039.00 767.00 L 1039.00 787.00 L 1043.00 800.00 L 1049.00 807.00 L 1057.00 811.00 L 1065.00 811.00 L 1070.00 808.00 L 1072.00 809.00 L 1057.00 873.00 L 1055.00 907.00 L 1058.00 907.00 L 1058.00 888.00 L 1060.00 879.00 L 1062.00 882.00 L 1063.00 892.00 L 1062.00 916.00 L 1064.00 916.00 L 1066.00 911.00 L 1066.00 897.00 L 1062.00 860.00 L 1075.00 805.00 L 1079.00 794.00 L 1080.00 785.00 L 1078.00 761.00 L 1070.00 736.00 L 1070.00 722.00 L 1085.00 679.00 L 1090.00 630.00 L 1101.00 587.00 L 1105.00 551.00 L 1110.00 589.00 L 1120.00 625.00 L 1124.00 669.00 L 1128.00 687.00 L 1141.00 722.00 L 1140.00 741.00 L 1132.00 766.00 L 1131.00 787.00 L 1148.00 858.00 L 1145.00 911.00 L 1147.00 916.00 L 1149.00 916.00 L 1149.00 881.00 L 1151.00 878.00 L 1152.00 879.00 L 1154.00 909.00 L 1156.00 909.00 L 1156.00 892.00 L 1150.00 854.00 L 1139.00 809.00 L 1140.00 808.00 L 1146.00 811.00 L 1157.00 810.00 L 1161.00 808.00 L 1170.00 797.00 L 1172.00 791.00 L 1172.00 768.00 L 1179.00 733.00 L 1179.00 703.00 L 1175.00 685.00 L 1170.00 679.00 L 1166.00 677.00 L 1156.00 677.00 L 1161.00 670.00 L 1167.00 656.00 L 1173.00 636.00 L 1175.00 621.00 L 1175.00 603.00 L 1172.00 585.00 L 1159.00 551.00 L 1157.00 542.00 L 1171.00 535.00 L 1180.00 526.00 L 1187.00 503.00 L 1189.00 507.00 L 1190.00 519.00 L 1197.00 554.00 L 1198.00 589.00 L 1193.00 625.00 L 1184.00 667.00 L 1183.00 686.00 L 1194.00 718.00 L 1201.00 744.00 L 1203.00 758.00 L 1203.00 780.00 L 1200.00 798.00 L 1197.00 804.00 L 1195.00 805.00 L 1195.00 807.00 L 1197.00 808.00 L 1186.00 840.00 L 1181.00 861.00 L 1179.00 901.00 L 1182.00 919.00 L 1184.00 919.00 L 1184.00 904.00 L 1196.00 911.00 L 1200.00 915.00 L 1202.00 919.00 L 1202.00 924.00 L 1197.00 932.00 L 1189.00 937.00 L 1176.00 949.00 L 1167.00 951.00 L 1154.00 951.00 L 1148.00 947.00 L 1144.00 939.00 L 1145.00 931.00 L 1150.00 921.00 L 1150.00 918.00 L 1148.00 918.00 L 1142.00 932.00 L 1143.00 945.00 L 1148.00 951.00 L 1152.00 953.00 L 1165.00 954.00 L 1180.00 950.00 L 1189.00 941.00 L 1199.00 934.00 L 1205.00 925.00 L 1205.00 918.00 L 1203.00 914.00 L 1194.00 906.00 L 1182.00 899.00 L 1182.00 879.00 L 1184.00 860.00 L 1188.00 843.00 L 1204.00 793.00 L 1206.00 779.00 L 1206.00 761.00 L 1202.00 736.00 L 1186.00 686.00 L 1186.00 672.00 L 1199.00 604.00 L 1201.00 573.00 L 1198.00 543.00 L 1190.00 505.00 L 1187.00 465.00 L 1185.00 455.00 L 1180.00 446.00 L 1181.00 436.00 L 1175.00 404.00 L 1175.00 383.00 L 1177.00 371.00 L 1191.00 343.00 L 1198.00 322.00 L 1201.00 322.00 L 1205.00 340.00 L 1212.00 355.00 L 1217.00 362.00 L 1217.00 374.00 L 1220.00 395.00 L 1226.00 413.00 L 1234.00 429.00 L 1255.00 462.00 L 1271.00 495.00 L 1269.00 500.00 L 1269.00 514.00 L 1280.00 538.00 L 1286.00 565.00 L 1288.00 569.00 L 1291.00 571.00 L 1293.00 571.00 L 1296.00 568.00 L 1296.00 562.00 L 1294.00 562.00 L 1293.00 568.00 L 1291.00 568.00 L 1288.00 564.00 L 1284.00 541.00 L 1273.00 517.00 L 1271.00 507.00 L 1273.00 492.00 L 1256.00 458.00 L 1233.00 421.00 L 1224.00 400.00 L 1219.00 365.00 L 1221.00 364.00 L 1231.00 373.00 L 1235.00 384.00 L 1237.00 384.00 L 1237.00 380.00 L 1233.00 371.00 L 1218.00 358.00 L 1218.00 355.00 L 1214.00 353.00 L 1207.00 338.00 L 1201.00 314.00 L 1207.00 286.00 L 1207.00 269.00 L 1210.00 265.00 L 1217.00 261.00 L 1239.00 274.00 L 1246.00 281.00 L 1250.00 290.00 L 1256.00 314.00 L 1257.00 352.00 L 1262.00 355.00 L 1280.00 387.00 L 1285.00 409.00 L 1290.00 457.00 L 1297.00 485.00 L 1312.00 501.00 L 1319.00 512.00 L 1338.00 529.00 L 1336.00 531.00 L 1331.00 531.00 L 1324.00 528.00 L 1321.00 524.00 L 1318.00 525.00 L 1320.00 537.00 L 1332.00 562.00 L 1327.00 562.00 L 1314.00 538.00 L 1312.00 538.00 L 1312.00 544.00 L 1315.00 552.00 L 1319.00 551.00 L 1324.00 562.00 L 1328.00 566.00 L 1332.00 566.00 L 1334.00 564.00 L 1334.00 558.00 L 1325.00 542.00 L 1321.00 529.00 L 1323.00 528.00 L 1325.00 531.00 L 1329.00 533.00 L 1338.00 533.00 L 1340.00 527.00 L 1321.00 510.00 L 1310.00 494.00 L 1300.00 484.00 L 1297.00 476.00 L 1291.00 445.00 L 1288.00 410.00 L 1284.00 390.00 L 1277.00 374.00 L 1260.00 348.00 L 1260.00 327.00 L 1258.00 310.00 L 1253.00 290.00 L 1248.00 281.00 L 1249.00 259.00 L 1247.00 244.00 L 1243.00 231.00 L 1236.00 219.00 L 1227.00 211.00 L 1210.00 204.00 L 1194.00 203.00 L 1177.00 198.00 L 1149.00 184.00 L 1141.00 177.00 L 1138.00 167.00 L 1138.00 140.00 L 1143.00 129.00 L 1145.00 127.00 L 1151.00 126.00 L 1154.00 122.00 L 1159.00 105.00 L 1157.00 96.00 L 1150.00 94.00 L 1151.00 76.00 L 1149.00 63.00 L 1144.00 53.00 L 1135.00 44.00 L 1127.00 40.00 L 1118.00 38.00 Z" fill="#000000" stroke="none" fill-rule="evenodd"/>
  <path d="M 414.00 36.00 L 395.00 42.00 L 384.00 53.00 L 379.00 67.00 L 378.00 94.00 L 372.00 96.00 L 370.00 100.00 L 370.00 108.00 L 373.00 120.00 L 378.00 128.00 L 385.00 130.00 L 387.00 137.00 L 391.00 142.00 L 389.00 175.00 L 387.00 179.00 L 381.00 184.00 L 354.00 197.00 L 338.00 202.00 L 318.00 204.00 L 307.00 209.00 L 293.00 225.00 L 288.00 236.00 L 284.00 252.00 L 284.00 281.00 L 279.00 289.00 L 274.00 304.00 L 272.00 320.00 L 272.00 342.00 L 258.00 363.00 L 248.00 383.00 L 242.00 406.00 L 238.00 432.00 L 223.00 476.00 L 209.00 485.00 L 196.00 497.00 L 192.00 498.00 L 183.00 504.00 L 181.00 507.00 L 181.00 510.00 L 186.00 513.00 L 195.00 511.00 L 200.00 508.00 L 201.00 509.00 L 199.00 518.00 L 185.00 542.00 L 182.00 551.00 L 184.00 554.00 L 189.00 554.00 L 189.00 552.00 L 185.00 551.00 L 185.00 548.00 L 197.00 528.00 L 204.00 511.00 L 203.00 505.00 L 200.00 505.00 L 191.00 510.00 L 185.00 510.00 L 184.00 507.00 L 217.00 483.00 L 225.00 479.00 L 241.00 431.00 L 248.00 392.00 L 254.00 376.00 L 264.00 359.00 L 273.00 347.00 L 278.00 356.00 L 287.00 381.00 L 289.00 381.00 L 296.00 370.00 L 296.00 368.00 L 294.00 368.00 L 289.00 375.00 L 287.00 375.00 L 274.00 340.00 L 275.00 313.00 L 281.00 291.00 L 287.00 282.00 L 294.00 279.00 L 310.00 267.00 L 310.00 265.00 L 308.00 265.00 L 304.00 270.00 L 302.00 270.00 L 294.00 276.00 L 288.00 279.00 L 286.00 278.00 L 286.00 258.00 L 288.00 246.00 L 293.00 231.00 L 299.00 221.00 L 308.00 212.00 L 320.00 206.00 L 346.00 205.00 L 365.00 209.00 L 365.00 207.00 L 359.00 205.00 L 346.00 203.00 L 381.00 187.00 L 391.00 179.00 L 393.00 170.00 L 394.00 147.00 L 405.00 157.00 L 415.00 163.00 L 429.00 164.00 L 440.00 159.00 L 454.00 146.00 L 455.00 174.00 L 457.00 179.00 L 468.00 188.00 L 502.00 202.00 L 477.00 210.00 L 468.00 210.00 L 453.00 213.00 L 442.00 217.00 L 433.00 223.00 L 433.00 225.00 L 435.00 225.00 L 446.00 218.00 L 464.00 213.00 L 481.00 213.00 L 495.00 221.00 L 528.00 257.00 L 528.00 260.00 L 520.00 275.00 L 500.00 294.00 L 482.00 303.00 L 466.00 306.00 L 447.00 305.00 L 432.00 301.00 L 425.00 297.00 L 423.00 239.00 L 430.00 230.00 L 430.00 228.00 L 428.00 228.00 L 423.00 234.00 L 418.00 225.00 L 413.00 220.00 L 408.00 217.00 L 392.00 212.00 L 375.00 211.00 L 375.00 213.00 L 388.00 214.00 L 405.00 219.00 L 412.00 223.00 L 420.00 233.00 L 423.00 297.00 L 421.00 299.00 L 407.00 304.00 L 396.00 306.00 L 378.00 306.00 L 368.00 304.00 L 353.00 297.00 L 342.00 289.00 L 341.00 286.00 L 334.00 280.00 L 334.00 278.00 L 325.00 265.00 L 321.00 256.00 L 328.00 248.00 L 328.00 246.00 L 345.00 229.00 L 371.00 214.00 L 372.00 210.00 L 368.00 209.00 L 368.00 213.00 L 352.00 221.00 L 337.00 232.00 L 328.00 243.00 L 328.00 245.00 L 312.00 262.00 L 312.00 264.00 L 314.00 264.00 L 319.00 259.00 L 327.00 273.00 L 331.00 301.00 L 327.00 319.00 L 317.00 343.00 L 305.00 357.00 L 305.00 359.00 L 309.00 357.00 L 310.00 358.00 L 307.00 388.00 L 304.00 399.00 L 295.00 418.00 L 265.00 458.00 L 247.00 488.00 L 248.00 506.00 L 245.00 516.00 L 235.00 535.00 L 228.00 556.00 L 226.00 558.00 L 224.00 556.00 L 225.00 548.00 L 223.00 548.00 L 221.00 557.00 L 224.00 560.00 L 227.00 560.00 L 231.00 556.00 L 239.00 532.00 L 245.00 523.00 L 250.00 509.00 L 250.00 488.00 L 265.00 463.00 L 293.00 427.00 L 303.00 409.00 L 310.00 388.00 L 312.00 375.00 L 312.00 353.00 L 324.00 334.00 L 329.00 321.00 L 331.00 309.00 L 332.00 308.00 L 334.00 310.00 L 337.00 325.00 L 347.00 353.00 L 351.00 380.00 L 351.00 436.00 L 346.00 445.00 L 344.00 454.00 L 338.00 510.00 L 330.00 545.00 L 327.00 572.00 L 329.00 610.00 L 334.00 637.00 L 339.00 654.00 L 340.00 676.00 L 337.00 696.00 L 330.00 719.00 L 326.00 742.00 L 325.00 783.00 L 339.00 855.00 L 340.00 890.00 L 336.00 914.00 L 317.00 938.00 L 313.00 947.00 L 313.00 953.00 L 318.00 958.00 L 324.00 960.00 L 346.00 961.00 L 365.00 958.00 L 369.00 956.00 L 374.00 950.00 L 374.00 922.00 L 376.00 905.00 L 374.00 873.00 L 376.00 857.00 L 388.00 801.00 L 395.00 782.00 L 397.00 772.00 L 396.00 744.00 L 388.00 711.00 L 394.00 699.00 L 400.00 676.00 L 405.00 615.00 L 416.00 573.00 L 422.00 537.00 L 422.00 520.00 L 424.00 518.00 L 428.00 520.00 L 432.00 558.00 L 446.00 614.00 L 451.00 677.00 L 454.00 690.00 L 462.00 710.00 L 461.00 721.00 L 454.00 750.00 L 454.00 771.00 L 465.00 808.00 L 476.00 867.00 L 477.00 887.00 L 475.00 893.00 L 475.00 904.00 L 478.00 930.00 L 477.00 949.00 L 482.00 956.00 L 490.00 959.00 L 517.00 961.00 L 530.00 959.00 L 536.00 956.00 L 538.00 953.00 L 538.00 946.00 L 534.00 937.00 L 514.00 911.00 L 514.00 901.00 L 511.00 889.00 L 512.00 857.00 L 526.00 781.00 L 525.00 743.00 L 513.00 688.00 L 511.00 672.00 L 512.00 654.00 L 517.00 635.00 L 522.00 606.00 L 524.00 571.00 L 521.00 548.00 L 513.00 513.00 L 507.00 453.00 L 505.00 445.00 L 500.00 435.00 L 500.00 368.00 L 503.00 352.00 L 509.00 336.00 L 516.00 310.00 L 519.00 310.00 L 523.00 327.00 L 531.00 343.00 L 538.00 352.00 L 539.00 379.00 L 544.00 399.00 L 554.00 420.00 L 583.00 458.00 L 602.00 489.00 L 602.00 511.00 L 615.00 537.00 L 622.00 558.00 L 624.00 560.00 L 628.00 560.00 L 630.00 558.00 L 630.00 547.00 L 634.00 557.00 L 639.00 564.00 L 644.00 564.00 L 646.00 562.00 L 646.00 559.00 L 644.00 559.00 L 643.00 562.00 L 641.00 562.00 L 638.00 559.00 L 630.00 539.00 L 627.00 535.00 L 624.00 535.00 L 624.00 538.00 L 628.00 551.00 L 628.00 556.00 L 626.00 558.00 L 620.00 548.00 L 617.00 536.00 L 605.00 512.00 L 605.00 489.00 L 588.00 460.00 L 555.00 416.00 L 548.00 402.00 L 542.00 380.00 L 542.00 358.00 L 544.00 357.00 L 557.00 369.00 L 562.00 379.00 L 564.00 379.00 L 578.00 346.00 L 591.00 364.00 L 602.00 386.00 L 611.00 433.00 L 626.00 478.00 L 638.00 485.00 L 651.00 496.00 L 668.00 507.00 L 667.00 510.00 L 661.00 510.00 L 652.00 505.00 L 648.00 506.00 L 651.00 520.00 L 667.00 548.00 L 667.00 551.00 L 664.00 552.00 L 660.00 549.00 L 660.00 547.00 L 658.00 547.00 L 660.00 552.00 L 662.00 554.00 L 668.00 554.00 L 670.00 552.00 L 670.00 549.00 L 654.00 520.00 L 651.00 509.00 L 652.00 508.00 L 660.00 512.00 L 669.00 512.00 L 671.00 510.00 L 671.00 507.00 L 668.00 503.00 L 657.00 497.00 L 644.00 486.00 L 632.00 479.00 L 627.00 472.00 L 615.00 438.00 L 606.00 390.00 L 603.00 381.00 L 590.00 357.00 L 579.00 342.00 L 578.00 310.00 L 574.00 294.00 L 566.00 281.00 L 566.00 250.00 L 562.00 237.00 L 552.00 219.00 L 540.00 208.00 L 528.00 203.00 L 512.00 202.00 L 493.00 196.00 L 464.00 182.00 L 459.00 176.00 L 458.00 141.00 L 463.00 130.00 L 468.00 129.00 L 472.00 126.00 L 478.00 109.00 L 477.00 97.00 L 474.00 95.00 L 470.00 95.00 L 470.00 70.00 L 465.00 55.00 L 459.00 47.00 L 449.00 40.00 L 433.00 36.00 Z" fill="#000000" stroke="none" fill-rule="evenodd"/>
</svg>