<?xml version="1.0" standalone="no"?>
<!DOCTYPE svg PUBLIC "-//W3C//DTD SVG 20010904//EN"
 "http://www.w3.org/TR/2001/REC-SVG-20010904/DTD/svg10.dtd">
<svg version="1.0" xmlns="http://www.w3.org/2000/svg"
 width="1536.000000pt" height="1024.000000pt" viewBox="0 0 1536.000000 1024.000000"
 preserveAspectRatio="xMidYMid meet">

<g transform="translate(0.000000,1024.000000) scale(0.100000,-0.100000)"
fill="#000000" stroke="none">
<path d="M4160 9874 c-142 -24 -202 -49 -263 -110 -74 -73 -105 -167 -114
-351 l-6 -121 -28 -6 c-41 -8 -54 -57 -39 -144 20 -115 69 -202 114 -202 16 0
29 -17 55 -70 l34 -70 -5 -143 c-7 -212 -14 -223 -218 -320 -183 -87 -238
-105 -346 -117 -215 -24 -301 -71 -394 -215 -75 -116 -110 -262 -110 -461 0
-114 -2 -123 -29 -175 -16 -30 -39 -85 -50 -124 -23 -79 -44 -273 -39 -368 l2
-63 -81 -124 c-141 -215 -180 -316 -224 -575 -11 -66 -29 -154 -39 -195 -17
-65 -147 -452 -153 -455 -1 -1 -24 -14 -52 -30 -27 -16 -90 -61 -140 -100 -49
-39 -108 -82 -130 -95 -80 -47 -104 -87 -73 -118 18 -18 88 -14 136 8 35 16
42 17 42 4 0 -29 -38 -121 -80 -194 -90 -156 -100 -176 -100 -200 0 -59 53
-67 99 -15 17 19 38 49 47 66 31 61 23 20 -11 -54 -38 -83 -43 -117 -19 -141
23 -24 49 -19 77 14 31 36 35 37 39 8 2 -13 11 -24 21 -26 52 -10 89 28 121
124 27 82 48 101 24 21 -19 -65 -20 -69 -3 -87 45 -49 72 -20 131 141 25 68
61 151 79 184 57 102 76 175 74 279 -1 82 1 98 26 146 43 84 164 261 294 430
124 160 206 303 250 438 28 84 51 242 51 353 0 83 2 94 29 132 76 111 161 311
161 378 0 32 17 13 25 -28 3 -21 31 -110 60 -198 90 -269 98 -319 104 -690 6
-317 6 -320 -17 -367 -29 -61 -47 -146 -62 -283 -27 -254 -60 -488 -85 -600
-58 -264 -67 -352 -62 -580 6 -229 15 -296 78 -578 39 -172 41 -189 36 -302
-5 -119 -29 -256 -68 -385 -40 -132 -70 -329 -76 -500 -6 -181 5 -264 82 -640
19 -91 44 -235 56 -320 20 -140 21 -165 10 -270 -32 -310 -17 -263 -137 -416
-162 -208 -171 -290 -36 -331 104 -32 347 -18 449 27 63 27 73 56 71 197 0 65
5 184 11 265 9 105 9 157 2 185 -26 91 -12 230 54 553 56 276 80 374 115 479
58 173 63 314 19 506 -11 50 -29 130 -39 179 l-18 89 28 66 c34 80 65 184 79
266 14 76 38 318 46 455 8 129 27 243 65 380 55 196 115 542 122 695 3 54 5
60 23 57 11 -2 21 -5 22 -6 1 -1 5 -36 8 -77 12 -151 58 -401 116 -627 59
-231 59 -237 79 -500 19 -253 34 -375 60 -474 15 -57 56 -173 74 -205 14 -28
14 -28 -35 -253 -36 -163 -47 -304 -30 -392 7 -35 30 -117 51 -183 21 -66 57
-208 79 -315 84 -408 107 -601 81 -690 -7 -25 -6 -94 4 -230 8 -107 13 -230
12 -272 -1 -63 3 -81 20 -105 46 -63 159 -88 364 -81 138 6 188 20 215 62 35
54 3 128 -127 295 -48 62 -90 123 -92 135 -27 131 -38 273 -33 401 6 138 17
209 91 590 81 420 76 582 -34 1060 -74 326 -75 389 -6 721 54 258 69 408 63
609 -4 132 -11 196 -31 285 -14 63 -32 147 -41 186 -17 83 -45 297 -75 573
-17 169 -24 204 -53 275 -26 63 -32 88 -25 111 4 16 2 133 -4 260 -13 275 0
416 56 593 19 59 51 161 71 227 39 125 55 158 55 113 0 -70 93 -281 162 -370
28 -36 29 -43 37 -185 10 -166 32 -266 87 -394 47 -111 55 -124 219 -344 166
-223 210 -287 277 -403 l49 -86 -6 -71 c-9 -94 11 -172 75 -292 27 -50 59
-125 71 -165 49 -162 80 -204 130 -178 19 11 21 18 16 68 l-6 56 40 -82 c31
-64 45 -83 66 -88 50 -13 69 20 50 86 -4 14 6 -1 23 -32 32 -62 61 -79 99 -58
31 16 27 72 -9 148 -38 81 -38 89 1 26 17 -27 38 -55 47 -61 26 -21 70 -16 83
9 10 18 5 34 -37 112 -95 179 -134 262 -140 294 l-7 32 44 -20 c44 -19 103
-26 133 -14 20 8 21 58 1 78 -8 8 -43 32 -77 52 -35 21 -88 59 -119 84 -30 25
-87 66 -126 90 -68 43 -72 48 -101 120 -79 194 -125 358 -177 635 -14 77 -33
163 -42 190 -24 77 -98 219 -178 341 l-72 110 -6 140 c-7 181 -27 278 -80 384
l-42 85 0 135 c-1 158 -18 235 -76 355 -54 109 -98 167 -170 220 -70 52 -126
70 -255 84 -117 12 -226 50 -399 136 -174 87 -179 94 -189 234 -4 56 -4 129
-1 164 8 81 51 187 75 187 62 0 124 127 125 253 0 57 -3 71 -20 83 -11 8 -27
13 -36 11 -15 -4 -17 12 -21 137 -5 160 -22 219 -84 301 -75 98 -179 143 -344
150 -52 2 -106 2 -120 -1z m251 -49 c119 -34 198 -104 238 -210 18 -49 21 -79
22 -235 1 -99 4 -180 6 -180 3 0 14 11 25 25 42 54 64 17 48 -83 -12 -73 -23
-105 -51 -143 -24 -35 -42 -37 -56 -7 -9 20 -12 16 -31 -42 -30 -90 -76 -154
-161 -225 -102 -85 -123 -95 -206 -95 -83 0 -104 10 -206 94 -75 62 -143 154
-155 209 -3 18 -11 43 -16 56 l-9 24 -15 -21 c-20 -29 -37 -20 -69 40 -21 39
-29 70 -33 124 -2 40 -2 80 1 88 8 21 31 11 47 -20 7 -13 17 -24 22 -24 4 0 8
66 8 148 0 81 4 173 10 206 33 202 192 305 450 290 47 -3 106 -11 131 -19z
m161 -1377 c35 -53 154 -118 383 -208 l70 -28 -45 -12 c-25 -6 -74 -20 -110
-31 -36 -11 -114 -27 -174 -35 -129 -17 -281 -65 -337 -106 -22 -15 -58 -53
-81 -83 l-42 -54 -13 31 c-24 57 -73 107 -137 138 -67 33 -222 70 -297 70 -26
0 -81 13 -130 31 -46 17 -108 34 -138 38 l-54 6 59 24 c95 39 314 149 350 176
42 32 53 71 62 230 l7 124 65 -55 c93 -79 158 -108 239 -108 81 0 135 27 231
113 l65 59 5 -147 c4 -117 9 -152 22 -173z m708 -280 c69 -12 122 -43 181
-105 121 -126 200 -354 184 -530 -4 -49 -11 -73 -19 -73 -17 0 -178 101 -236
148 -64 51 -147 139 -257 269 -102 122 -147 163 -236 216 l-57 35 28 10 c116
46 268 57 412 30z m-1694 -12 c40 -9 80 -23 90 -30 16 -12 12 -17 -46 -46 -87
-44 -189 -110 -240 -156 -23 -21 -77 -84 -121 -140 -112 -145 -249 -268 -366
-328 l-33 -17 0 113 c1 319 133 564 332 614 72 18 291 12 384 -10z m289 -67
c89 -12 193 -49 243 -86 18 -14 45 -43 60 -65 l27 -41 12 -316 c6 -174 9 -319
5 -322 -19 -17 -145 -59 -206 -69 -167 -27 -306 -8 -434 57 -136 68 -293 248
-348 398 -13 34 -8 41 107 180 72 87 119 123 286 220 81 47 115 62 138 59 17
-2 66 -9 110 -15z m945 6 c96 -34 200 -126 368 -328 40 -48 77 -87 83 -87 19
0 8 -45 -31 -119 -45 -86 -161 -213 -245 -267 -111 -71 -252 -114 -376 -114
-88 0 -226 25 -297 53 l-57 23 -6 51 c-4 28 -10 159 -14 290 l-7 238 41 62
c23 34 61 78 86 97 54 41 163 82 266 101 99 18 138 18 189 0z m-1531 -718 c26
-145 21 -204 -25 -343 -61 -182 -110 -261 -253 -409 -53 -55 -103 -111 -112
-123 -14 -23 -17 -16 -83 153 l-69 177 6 134 c8 165 28 268 71 359 32 68 36
72 128 129 53 32 129 87 169 122 l73 63 36 -67 c29 -54 41 -94 59 -195z m2088
202 c42 -36 161 -113 223 -144 41 -21 55 -35 79 -84 61 -119 91 -268 91 -446
0 -66 -43 -206 -105 -339 l-28 -58 -25 33 c-32 41 -66 75 -157 155 -113 99
-197 260 -238 457 l-21 98 23 117 c14 74 35 144 57 190 38 82 30 80 101 21z
m-1865 -327 c69 -45 144 -74 238 -93 48 -9 60 -15 56 -28 -16 -57 -28 -281
-23 -446 13 -507 75 -1001 156 -1242 15 -46 26 -83 25 -83 -1 0 -36 55 -79
123 -158 250 -211 324 -277 387 l-68 65 0 255 c0 350 -15 454 -104 723 -50
150 -126 465 -126 521 0 6 31 -24 69 -66 39 -41 98 -93 133 -116z m1653 18
c-18 -85 -50 -209 -71 -275 -84 -272 -94 -309 -110 -412 -13 -89 -15 -154 -10
-373 l7 -265 -83 -86 c-57 -58 -104 -121 -148 -195 -71 -120 -189 -304 -195
-304 -2 0 5 24 15 53 46 131 94 373 110 557 33 375 45 1013 22 1125 -6 27 -9
51 -8 52 2 2 38 12 82 23 145 37 276 113 378 219 22 22 41 39 42 38 2 -2 -12
-72 -31 -157z m-935 -249 l0 -200 -47 -8 c-27 -4 -104 -8 -173 -8 -135 0 -200
14 -200 43 1 27 19 213 26 258 l6 41 101 6 c79 4 122 12 187 35 47 17 88 31
93 31 4 1 7 -89 7 -198z m155 162 c50 -13 131 -27 181 -30 l91 -6 12 -96 c7
-53 13 -123 14 -155 l2 -60 -45 -15 c-52 -17 -295 -20 -345 -4 l-30 9 -3 198
c-2 187 -1 198 15 191 10 -4 59 -19 108 -32z m-335 -409 c58 3 122 8 143 12
l37 7 2 -172 c1 -94 2 -179 2 -188 1 -25 -46 -35 -179 -35 -153 0 -215 16
-227 58 -5 16 -12 99 -15 185 l-6 156 69 -14 c48 -11 101 -13 174 -9z m637
-134 c-7 -194 -13 -210 -82 -228 -72 -18 -322 -13 -335 8 -5 8 -10 95 -10 194
l0 178 33 -6 c82 -15 254 -16 312 -3 33 8 66 15 74 16 12 1 13 -25 8 -159z
m1189 5 c121 -184 150 -263 200 -540 28 -152 88 -373 133 -488 15 -39 36 -95
45 -124 15 -45 23 -55 62 -74 25 -12 82 -51 127 -86 45 -36 117 -88 160 -116
42 -28 77 -56 77 -64 0 -21 -60 -15 -115 12 -56 28 -75 31 -76 13 -6 -71 20
-145 90 -263 89 -148 107 -195 77 -195 -16 0 -51 42 -125 153 -87 130 -97 95
-20 -72 54 -119 69 -174 49 -186 -18 -11 -29 5 -105 152 -66 129 -95 168 -95
126 0 -10 18 -67 40 -127 45 -123 49 -149 23 -144 -19 3 -35 33 -102 181 -37
82 -59 104 -76 77 -3 -5 3 -48 15 -96 22 -95 25 -124 10 -124 -14 0 -46 66
-82 168 -17 48 -50 126 -74 175 -57 112 -76 194 -68 286 7 69 7 69 -41 153
-66 115 -107 173 -276 400 -195 260 -245 353 -285 526 -16 70 -28 302 -15 302
22 0 144 -127 172 -180 17 -33 34 -58 38 -56 3 3 38 81 76 174 80 195 61 191
161 37z m-3060 -67 c30 -79 59 -147 63 -151 4 -4 27 21 50 56 23 36 70 91 104
123 l62 59 3 -29 c6 -46 -17 -222 -39 -316 -39 -159 -109 -283 -299 -530 -117
-153 -183 -250 -240 -354 -43 -79 -44 -80 -41 -171 3 -104 -14 -166 -72 -276
-19 -35 -52 -111 -72 -169 -43 -121 -61 -160 -75 -160 -15 0 -12 47 10 134 20
81 19 96 -4 96 -19 0 -37 -31 -79 -134 -45 -109 -62 -136 -87 -136 -32 0 -25
33 31 153 28 61 48 116 44 125 -9 25 -25 2 -95 -133 -65 -126 -91 -162 -109
-151 -18 12 -13 34 30 130 58 129 80 194 68 202 -13 8 -12 9 -92 -107 -74
-107 -90 -124 -112 -116 -19 8 -17 13 78 179 82 145 122 257 100 279 -10 10
-22 8 -55 -5 -83 -35 -112 -44 -125 -39 -26 10 -12 33 43 68 31 20 109 75 174
123 65 48 131 94 147 103 26 14 37 37 96 210 76 222 107 340 138 524 33 201
80 314 212 512 73 109 58 119 143 -99z m1199 -211 c44 -1 110 2 148 6 l67 9 0
-119 c0 -65 3 -148 6 -185 l7 -67 -39 -8 c-107 -22 -311 2 -343 41 -10 11 -32
332 -24 348 2 3 24 0 50 -8 27 -8 84 -16 128 -17z m650 -94 c-10 -217 -12
-230 -43 -242 -83 -32 -232 -45 -314 -28 l-38 8 0 183 0 183 128 -4 c89 -3
147 0 192 11 36 8 69 15 73 15 5 1 6 -56 2 -126z m-30 -404 c-27 -238 -60
-375 -127 -526 -33 -75 -55 -110 -96 -151 -47 -46 -122 -102 -137 -102 -3 0
-5 200 -5 445 l0 445 28 -7 c50 -14 214 -6 282 14 36 11 66 18 68 17 2 -1 -4
-62 -13 -135z m-661 104 c69 -14 98 -15 167 -7 46 6 86 9 89 7 7 -6 13 -883 5
-883 -31 0 -165 125 -202 190 -56 96 -138 425 -161 643 -7 64 -6 77 5 73 8 -3
51 -13 97 -23z m1029 -149 c34 -80 42 -121 62 -344 9 -96 19 -188 22 -205 9
-55 -53 87 -81 184 -31 108 -77 228 -112 290 l-25 45 48 48 c26 26 50 48 53
48 3 0 18 -30 33 -66z m-1403 11 l44 -44 -52 -118 c-28 -65 -62 -158 -77 -208
-14 -49 -37 -114 -50 -143 -14 -29 -25 -57 -25 -62 0 -5 -5 -12 -11 -16 -7 -4
-9 0 -5 12 3 11 15 102 26 204 11 102 25 212 31 245 11 60 56 175 68 175 4 0
27 -20 51 -45z m123 -175 c-11 -42 -7 -241 6 -310 7 -36 37 -166 66 -290 63
-262 95 -439 95 -530 0 -97 -22 -182 -91 -357 -85 -218 -78 -208 -99 -137
-172 576 -229 964 -185 1269 15 107 66 276 118 389 l31 69 33 -39 c25 -30 31
-45 26 -64z m1232 -145 c104 -323 78 -712 -86 -1297 -33 -117 -62 -220 -65
-228 -6 -18 -129 289 -155 389 -39 152 -22 294 91 754 51 208 64 312 57 448
l-5 106 31 38 31 39 33 -70 c18 -38 49 -118 68 -179z m-1176 77 c38 -74 187
-291 253 -369 37 -43 91 -94 118 -113 l51 -35 -5 -117 c-9 -193 -44 -386 -127
-700 l-32 -122 -14 40 c-8 21 -30 100 -49 174 -34 128 -43 172 -80 405 -9 55
-40 197 -69 315 -30 118 -59 244 -64 280 -11 65 -15 280 -6 280 2 0 13 -17 24
-38z m991 -69 c0 -98 -17 -202 -75 -443 -29 -124 -65 -297 -80 -385 -31 -185
-62 -329 -103 -469 l-29 -99 -16 69 c-9 38 -32 128 -51 199 -49 188 -88 421
-93 560 l-4 120 43 30 c84 60 303 338 373 474 23 45 35 26 35 -56z m-1298
-377 c-7 -296 30 -523 168 -1011 32 -112 55 -216 60 -275 6 -52 12 -107 14
-121 5 -26 4 -27 -30 -16 -67 20 -117 -27 -159 -148 -6 -19 -7 -20 -20 -1 -38
52 -97 184 -120 267 -51 193 -70 353 -69 604 0 220 1 237 32 385 18 85 41 200
52 255 11 55 31 122 45 149 14 27 25 55 25 63 0 7 1 13 3 13 1 0 1 -74 -1
-164z m1616 51 c6 -7 17 -57 26 -112 9 -55 32 -172 51 -260 55 -251 58 -507 9
-770 -50 -266 -66 -319 -129 -431 l-38 -68 -33 68 c-19 38 -39 74 -45 82 -16
20 -76 28 -106 15 l-26 -12 8 53 c4 29 11 87 15 128 4 41 33 163 64 270 68
235 130 507 148 650 7 58 13 191 13 296 0 190 0 191 17 147 9 -24 21 -50 26
-56z m-1123 -927 c57 -194 58 -195 45 -410 -6 -107 -13 -202 -16 -210 -3 -8
-32 -35 -65 -59 -50 -36 -65 -42 -91 -37 -26 5 -29 4 -22 -12 5 -9 8 -51 8
-92 -2 -89 -29 -169 -80 -235 -36 -48 -27 -59 18 -22 45 37 97 177 98 262 0
22 4 45 8 50 8 12 107 85 114 85 6 0 -8 -109 -23 -175 -21 -97 -52 -181 -114
-310 -116 -238 -124 -277 -135 -665 -5 -168 -13 -395 -19 -505 -15 -285 -19
-393 -14 -370 2 11 8 29 13 40 17 40 42 435 59 935 9 249 10 257 41 355 31 95
68 181 75 173 12 -13 68 -280 76 -366 14 -132 3 -209 -51 -375 -38 -119 -82
-310 -135 -592 -32 -165 -43 -363 -26 -440 9 -40 9 -73 0 -141 -6 -49 -13
-159 -14 -244 -1 -99 -6 -163 -14 -177 -26 -50 -132 -76 -316 -77 -102 0 -127
3 -167 21 -44 20 -48 25 -48 58 0 49 35 114 119 219 39 48 80 104 92 123 33
54 54 210 53 389 -2 172 -12 238 -92 639 l-56 280 0 190 c0 209 11 289 79 558
51 205 65 289 65 401 l0 101 35 -60 c32 -56 34 -66 35 -150 1 -137 19 -202 70
-247 31 -28 51 -38 76 -38 45 0 43 13 -5 35 -81 36 -98 71 -111 234 -8 100 -8
118 6 127 8 7 25 38 37 70 13 32 34 66 49 77 25 19 30 19 65 6 26 -10 48 -30
71 -64 59 -88 70 -69 21 33 -28 56 -32 77 -37 170 l-5 107 71 180 c79 202 97
253 109 310 l8 40 3 -40 c2 -22 18 -92 37 -155z m670 50 c15 -47 54 -151 86
-233 54 -135 59 -153 59 -225 -1 -101 -12 -152 -57 -239 -29 -58 -41 -73 -59
-73 -27 0 -122 73 -133 103 -10 26 -36 331 -34 397 0 25 19 106 42 180 23 74
44 153 48 175 7 45 6 47 48 -85z m267 -640 c14 -10 33 -41 43 -67 9 -26 25
-59 33 -73 13 -20 16 -47 13 -125 -1 -55 -7 -116 -12 -136 -10 -41 -74 -105
-114 -115 -33 -8 -32 -24 3 -24 38 0 82 30 115 77 32 46 46 122 47 243 0 64 4
82 29 123 l28 49 6 -119 c3 -65 15 -158 26 -208 10 -49 35 -162 55 -250 47
-213 70 -420 62 -555 -6 -104 -36 -303 -76 -495 -59 -283 -83 -507 -70 -635
17 -168 31 -252 46 -281 8 -16 48 -71 89 -122 82 -102 138 -202 133 -238 -2
-14 -17 -31 -38 -43 -31 -19 -51 -21 -195 -20 -170 0 -249 14 -296 53 -22 18
-23 24 -25 197 -1 98 -7 216 -13 262 -7 54 -7 92 -1 108 15 38 12 216 -5 326
-20 135 -109 569 -134 653 -11 39 -32 108 -46 155 -48 156 -44 284 16 520 16
63 31 119 32 125 6 17 74 -138 90 -206 21 -86 34 -243 42 -508 7 -237 49 -799
61 -809 8 -8 -1 301 -16 528 -5 85 -14 272 -20 416 -12 333 -20 375 -114 574
-85 179 -110 241 -131 326 -16 63 -35 196 -29 203 2 2 17 -8 35 -23 17 -15 44
-33 60 -42 26 -13 29 -20 29 -62 0 -101 56 -244 112 -286 40 -29 45 -13 9 31
-45 56 -71 123 -83 215 -10 75 -9 87 8 119 42 79 80 130 109 144 40 20 58 19
87 -5z"/>
<path d="M4119 8997 c-23 -18 -50 -38 -60 -45 -16 -12 -21 -11 -43 11 -14 14
-27 22 -30 19 -15 -15 -3 -57 25 -84 29 -30 32 -30 103 -26 48 3 86 12 107 24
33 19 33 19 78 -3 102 -52 231 -15 231 66 0 25 -6 26 -26 6 -23 -22 -50 -18
-86 14 -52 44 -67 49 -165 49 -88 0 -94 -1 -134 -31z"/>
<path d="M3954 8405 c4 -22 18 -64 32 -94 24 -54 132 -206 140 -198 3 3 -22
44 -55 93 -33 49 -72 121 -86 159 -32 83 -40 94 -31 40z"/>
<path d="M4510 8408 c-25 -64 -83 -173 -122 -231 -54 -79 -42 -84 14 -5 49 68
98 161 118 221 15 48 7 59 -10 15z"/>
<path d="M4285 8080 c-11 -4 -40 -6 -65 -3 -38 5 -43 3 -32 -8 18 -20 88 -17
109 4 19 19 18 20 -12 7z"/>
<path d="M3470 6975 c0 -4 12 -28 26 -52 29 -50 104 -103 143 -103 22 1 19 4
-20 25 -26 13 -70 50 -98 82 -28 31 -51 53 -51 48z"/>
<path d="M3488 6825 c-10 -10 41 -93 70 -114 34 -24 72 -35 72 -22 0 5 -9 12
-19 16 -20 6 -74 61 -101 103 -8 13 -18 21 -22 17z"/>
<path d="M4985 6918 c-22 -29 -60 -62 -84 -75 -33 -17 -39 -23 -22 -23 47 0
112 52 145 118 24 47 7 38 -39 -20z"/>
<path d="M4955 6755 c-27 -29 -57 -54 -65 -57 -8 -3 -12 -9 -8 -13 11 -12 103
44 121 75 18 30 22 51 10 49 -5 -1 -30 -25 -58 -54z"/>
<path d="M3647 3123 c-4 -3 -7 -33 -7 -65 0 -32 -9 -144 -20 -250 -49 -480
-54 -555 -54 -848 -1 -300 6 -381 42 -499 16 -51 66 -120 78 -108 3 3 -3 15
-14 27 -22 24 -45 99 -63 205 -15 91 -15 596 0 780 7 77 23 241 36 365 36 343
40 400 23 400 -8 0 -18 -3 -21 -7z"/>
<path d="M3340 2984 c0 -16 5 -56 10 -89 5 -33 14 -181 19 -330 7 -182 15
-291 26 -335 50 -206 60 -303 60 -618 0 -234 3 -299 12 -286 6 8 15 50 19 92
10 110 -2 471 -20 577 -61 371 -64 396 -70 585 -3 120 -13 239 -25 308 -19
113 -31 151 -31 96z"/>
<path d="M4845 3120 c-7 -12 -4 -52 25 -340 80 -775 75 -1252 -16 -1385 -29
-43 -30 -49 -6 -36 32 17 71 105 89 202 15 77 18 147 18 389 -1 290 -11 464
-51 805 -8 72 -18 184 -22 249 -7 113 -18 147 -37 116z"/>
<path d="M5147 2862 c-10 -81 -21 -244 -27 -362 -7 -156 -16 -248 -34 -335
-37 -184 -49 -329 -50 -575 0 -222 7 -280 35 -280 7 0 9 13 5 38 -3 20 -9 125
-12 232 -7 210 5 331 61 645 20 112 27 197 35 425 5 157 12 299 16 316 3 17 2
34 -3 37 -6 4 -17 -55 -26 -141z"/>
<path d="M10965 9859 c-111 -17 -189 -46 -239 -90 -92 -81 -124 -171 -127
-359 l-2 -120 -27 0 c-60 0 -73 -69 -35 -187 29 -92 65 -143 100 -143 17 0 30
-13 53 -52 25 -46 30 -66 35 -158 8 -144 -4 -241 -35 -288 -54 -81 -428 -252
-551 -252 -61 0 -188 -30 -244 -57 -80 -39 -145 -108 -192 -204 -62 -128 -73
-181 -76 -364 -2 -151 -4 -164 -33 -242 -42 -110 -60 -214 -73 -414 l-11 -168
-83 -140 c-109 -182 -121 -206 -145 -293 -29 -107 -36 -152 -60 -373 -21 -205
-33 -272 -77 -455 -21 -88 -30 -110 -57 -135 -42 -40 -115 -127 -162 -196 -22
-30 -76 -88 -122 -128 -84 -75 -99 -104 -67 -131 22 -18 101 -7 137 20 16 12
32 19 35 17 9 -10 -28 -109 -78 -209 -51 -102 -59 -137 -34 -158 28 -23 62 -3
95 56 33 56 54 70 27 17 -26 -51 -40 -129 -27 -152 17 -33 75 -29 94 7 14 25
15 26 16 5 0 -15 8 -25 24 -29 56 -14 73 6 123 141 18 50 30 74 26 55 -4 -19
-8 -60 -8 -90 0 -55 0 -55 32 -58 44 -4 58 21 89 159 14 63 36 139 49 169 13
30 34 82 48 115 40 95 52 172 41 257 l-10 72 81 161 c44 88 136 251 203 363
87 144 135 235 163 310 42 115 79 297 79 393 0 51 6 70 47 146 25 47 65 145
89 217 31 99 44 126 50 111 43 -113 82 -203 142 -330 102 -215 114 -327 67
-613 -26 -156 -31 -222 -17 -222 4 0 20 66 36 148 22 108 31 185 34 292 5 182
-8 241 -86 398 -143 287 -209 509 -227 752 l-6 85 88 -92 c109 -113 159 -149
230 -163 48 -10 66 -9 121 5 35 10 86 32 112 50 l47 32 12 -47 c21 -82 66
-164 192 -349 l122 -179 -60 -99 c-126 -206 -326 -623 -340 -710 -11 -66 13
-30 61 90 61 152 205 443 291 586 36 60 65 120 65 133 0 15 -47 95 -116 199
-125 189 -164 259 -182 329 -18 70 -32 267 -32 459 0 237 -10 257 -165 346
-44 25 -114 57 -156 72 l-76 27 76 31 c102 41 284 140 326 176 56 49 70 103
70 262 0 75 2 137 4 137 2 0 20 -13 40 -28 62 -49 154 -100 200 -112 83 -22
186 12 292 95 l56 44 6 -142 c6 -167 20 -211 80 -262 35 -30 258 -151 312
-168 11 -4 36 -13 55 -21 l35 -13 -35 -10 c-142 -42 -275 -120 -325 -193 -37
-53 -47 -115 -39 -230 7 -108 -10 -364 -32 -458 -19 -85 -58 -161 -158 -305
-158 -230 -156 -227 -136 -227 11 0 121 147 202 270 69 106 102 170 123 242
l16 57 43 -33 c61 -46 148 -69 215 -56 87 16 121 39 228 149 57 57 106 102
109 98 8 -8 -22 -249 -42 -337 -29 -129 -86 -283 -165 -445 -102 -211 -113
-258 -106 -460 4 -95 14 -185 26 -244 29 -131 26 -240 -4 -191 -12 20 -127 71
-182 81 -52 10 -58 9 -126 -24 -142 -67 -319 -224 -367 -323 l-23 -47 -28 55
c-15 30 -40 67 -56 84 -53 55 -198 168 -269 211 -61 37 -79 43 -125 43 -103
-1 -234 -76 -283 -162 -28 -50 -32 -71 -76 -441 -11 -92 -38 -256 -59 -365
-86 -426 -83 -560 21 -1067 63 -313 81 -427 73 -486 -3 -26 -35 -136 -71 -245
-99 -300 -128 -446 -126 -631 2 -159 29 -282 123 -568 27 -82 60 -199 73 -260
24 -107 53 -416 41 -435 -3 -5 -37 -28 -75 -51 -38 -22 -87 -60 -110 -85 -35
-38 -40 -49 -40 -91 0 -65 23 -99 117 -171 43 -33 89 -72 103 -87 33 -35 78
-53 162 -65 98 -14 157 1 202 50 56 63 60 136 11 242 -25 55 -25 56 -9 118 15
60 15 77 -6 292 l-21 228 26 107 c15 60 47 191 72 293 25 102 52 212 60 245
11 45 14 93 10 195 -5 121 -9 146 -43 245 -29 86 -38 131 -41 205 -5 94 -5 96
45 230 96 262 105 300 132 575 23 238 35 309 85 485 41 144 52 205 69 385 l13
130 7 -80 c14 -146 45 -318 85 -465 49 -182 57 -226 76 -430 23 -247 54 -386
136 -600 l51 -135 -5 -95 c-4 -73 -15 -126 -47 -230 -40 -127 -42 -142 -42
-255 0 -82 5 -137 16 -175 9 -30 30 -111 46 -180 16 -69 47 -201 68 -293 l40
-168 -20 -207 c-20 -216 -19 -281 6 -330 8 -16 11 -33 7 -38 -19 -20 -61 -145
-61 -180 0 -45 34 -120 64 -139 40 -26 112 -36 184 -25 103 16 130 28 192 84
31 28 81 72 112 98 133 113 111 208 -76 321 l-69 42 2 95 c4 237 29 368 125
667 76 237 94 309 106 433 18 179 -4 336 -86 595 -26 83 -62 202 -81 265 l-34
115 15 110 c9 61 36 211 60 335 96 490 100 721 16 1120 -15 74 -38 223 -49
330 -35 322 -41 359 -66 417 -19 42 -25 73 -25 128 0 40 -9 117 -21 171 -26
122 -36 331 -20 433 9 58 28 108 82 219 71 146 122 264 134 315 11 41 21 33
34 -30 18 -81 75 -225 115 -292 29 -47 35 -69 41 -141 24 -296 64 -404 284
-769 61 -101 142 -248 181 -326 69 -138 71 -143 61 -186 -23 -96 -6 -181 66
-329 30 -63 52 -127 65 -190 33 -163 50 -200 93 -200 47 0 51 22 29 164 -3 17
13 -16 35 -73 46 -120 67 -147 106 -137 14 4 30 17 35 29 7 16 9 18 9 5 2 -40
72 -50 96 -15 16 26 12 49 -34 165 -12 28 -19 52 -16 52 3 0 16 -24 31 -52 33
-67 62 -98 89 -98 55 0 58 50 9 140 -45 84 -94 199 -94 223 0 17 2 17 31 -4
18 -12 52 -24 79 -27 40 -4 50 -1 63 18 23 33 10 57 -62 114 -74 59 -104 92
-171 186 -25 35 -69 88 -97 117 -43 45 -57 68 -77 131 -32 102 -61 275 -86
512 -36 337 -59 407 -208 649 l-79 126 -11 180 c-14 200 -36 319 -82 427 -29
69 -30 79 -30 211 0 165 -18 263 -65 364 -37 80 -108 162 -170 198 -59 34
-167 64 -270 75 -80 8 -147 27 -279 79 -64 25 -240 127 -266 154 -40 41 -52
102 -51 257 0 125 3 140 28 197 24 53 32 63 54 63 55 0 107 98 116 216 7 83
-8 114 -54 114 -23 0 -23 1 -23 123 0 142 -16 218 -60 281 -58 85 -129 131
-235 154 -78 17 -185 21 -250 11z m297 -57 c80 -32 118 -60 155 -115 49 -73
56 -107 60 -295 l5 -174 23 22 c55 52 73 -21 35 -142 -23 -76 -53 -112 -85
-104 -19 5 -25 -2 -46 -47 -40 -87 -123 -163 -246 -226 -66 -33 -154 -29 -232
11 -103 53 -187 129 -223 203 -18 35 -36 61 -40 58 -49 -29 -118 93 -118 210
0 57 19 71 54 38 l24 -22 4 178 c4 164 6 182 30 233 46 101 93 140 218 182 82
27 302 21 382 -10z m-938 -1643 c22 -6 62 -22 90 -35 27 -13 56 -24 63 -24 7
0 13 -3 13 -8 0 -4 16 -16 35 -26 52 -28 113 -98 119 -138 3 -18 7 -145 9
-281 l5 -248 -26 -30 c-69 -83 -213 -110 -302 -57 -25 14 -115 96 -200 180
l-155 154 40 27 c22 14 94 72 160 128 66 55 164 138 217 182 54 45 98 85 98
90 0 21 -37 0 -108 -60 -282 -242 -447 -370 -543 -419 -48 -25 -108 -63 -132
-84 l-44 -39 -7 77 c-9 97 13 252 47 339 81 204 247 301 492 287 50 -3 108
-10 129 -15z m1738 7 c196 -32 319 -147 374 -351 9 -34 18 -119 21 -199 l6
-139 -54 40 c-30 22 -94 61 -144 87 -86 45 -189 121 -342 251 -39 33 -118 101
-177 150 l-107 90 70 33 c44 21 95 36 138 41 103 12 121 12 215 -3z m-315
-203 c232 -195 319 -266 360 -295 l42 -31 -57 -42 c-31 -23 -106 -93 -167
-155 -123 -126 -168 -153 -255 -154 -67 0 -156 39 -196 87 -25 30 -26 34 -18
112 4 44 8 161 9 260 1 210 9 236 91 295 27 19 51 38 53 44 2 5 8 2 13 -7 5
-9 61 -61 125 -114z m-1739 -391 c21 -16 25 -31 33 -127 5 -60 19 -154 30
-209 25 -120 22 -170 -19 -312 -31 -105 -79 -224 -92 -224 -4 0 -11 90 -15
200 -4 110 -10 200 -12 200 -3 0 -22 -13 -42 -29 -55 -43 -81 -54 -113 -47
-29 6 -30 4 -75 -92 -112 -239 -153 -405 -118 -482 15 -34 17 -57 12 -147 -12
-207 -51 -354 -173 -639 -38 -91 -47 -140 -15 -88 19 32 54 109 117 262 58
141 104 359 104 495 0 37 2 67 5 67 2 0 19 -9 37 -20 18 -11 39 -20 46 -20 24
0 11 20 -25 39 -71 36 -93 64 -93 120 0 60 51 221 116 367 45 100 49 104 78
104 17 0 49 12 69 26 21 14 40 24 42 22 5 -6 22 -382 18 -395 -3 -7 -24 -23
-46 -37 -74 -43 -109 -88 -123 -158 -15 -72 -1 -105 15 -37 17 70 43 111 91
148 l45 34 3 -49 c8 -113 -42 -331 -107 -469 -21 -44 -93 -172 -160 -285 -67
-113 -154 -270 -192 -349 l-70 -143 11 -68 c16 -93 0 -169 -59 -300 -34 -74
-56 -142 -75 -230 -27 -126 -48 -172 -62 -135 -4 10 0 64 9 119 23 131 22 138
-5 134 -18 -2 -28 -22 -58 -113 -44 -131 -75 -195 -95 -195 -22 0 -19 21 20
133 43 129 54 187 33 187 -23 0 -31 -15 -73 -130 -21 -58 -49 -127 -62 -154
-22 -43 -26 -47 -40 -34 -13 14 -10 30 33 149 26 74 47 148 48 164 2 59 -28
31 -92 -85 -70 -129 -86 -150 -102 -134 -8 8 5 42 44 115 103 196 119 338 28
254 -14 -13 -45 -31 -69 -39 -37 -13 -43 -13 -55 1 -13 16 -17 12 101 111 28
24 68 69 90 100 21 31 73 95 114 141 59 65 81 97 97 145 25 75 74 343 90 491
24 229 41 333 66 410 31 96 38 109 125 249 61 97 69 107 69 79 0 -38 18 -53
24 -21 3 13 7 93 11 178 10 276 38 440 96 557 35 72 80 113 208 189 93 55 97
55 159 6z m2358 -63 c22 -15 55 -43 71 -63 37 -42 85 -163 108 -271 14 -68 33
-346 35 -508 0 -30 4 -46 10 -42 6 3 10 22 10 41 0 19 5 34 10 34 6 0 10 -5
10 -10 0 -6 24 -50 53 -98 149 -242 160 -282 207 -712 21 -201 36 -286 76
-424 23 -81 30 -93 76 -134 28 -25 76 -82 107 -126 62 -90 103 -133 182 -196
59 -47 66 -63 30 -68 -37 -6 -68 6 -106 39 -92 81 -83 -26 21 -233 30 -59 54
-112 54 -118 0 -5 -8 -10 -18 -10 -13 0 -35 29 -72 98 -64 116 -88 152 -102
152 -19 0 -1 -80 41 -186 49 -123 54 -158 26 -162 -18 -2 -29 17 -79 143 -65
161 -79 186 -95 170 -8 -8 2 -50 34 -145 49 -146 53 -170 29 -170 -17 0 -47
63 -87 180 -38 114 -48 131 -71 128 -18 -3 -21 -9 -18 -43 2 -22 12 -76 22
-119 20 -81 19 -96 -5 -96 -22 0 -31 26 -59 157 -15 73 -36 144 -55 181 -75
149 -98 245 -81 338 l12 64 -74 153 c-41 83 -117 222 -170 307 -174 286 -223
386 -258 526 -19 78 -42 304 -30 304 11 -1 83 -60 97 -80 8 -11 22 -44 32 -72
23 -68 46 -78 36 -17 -11 66 -48 122 -114 171 -33 23 -62 49 -65 56 -3 6 -1
87 5 179 6 92 9 178 6 190 -2 13 -3 23 -2 23 2 0 23 -11 46 -25 24 -14 56 -25
71 -25 36 0 65 -43 118 -180 49 -128 81 -237 83 -290 1 -46 -32 -88 -95 -121
-42 -21 -52 -45 -15 -33 12 3 34 13 50 21 l27 14 0 -58 c0 -168 49 -381 132
-578 67 -160 97 -217 108 -210 9 6 -8 58 -52 155 -33 75 -95 242 -111 300 -26
89 -59 408 -44 417 5 3 15 20 23 39 12 28 12 44 0 111 -17 91 -75 252 -135
371 l-42 83 -34 -7 c-38 -7 -66 6 -117 54 -15 14 -31 22 -35 18 -5 -4 -10 -98
-13 -209 l-5 -202 -37 72 c-22 42 -53 128 -73 207 l-36 135 20 78 c23 90 41
232 41 318 l0 60 47 32 46 32 76 -41 c42 -23 94 -54 117 -69z m-1703 -1655
c50 -26 84 -51 202 -145 94 -76 109 -93 144 -169 l30 -65 2 -231 c0 -142 -3
-239 -9 -250 -22 -40 -100 -104 -152 -124 -69 -28 -194 -37 -286 -21 -133 23
-223 82 -268 174 -24 48 -25 57 -15 116 11 73 24 101 86 189 91 131 120 213
133 373 5 62 12 125 16 138 5 18 4 23 -7 19 -21 -7 -37 -71 -47 -195 -11 -130
-31 -180 -130 -331 -34 -52 -64 -110 -67 -130 -11 -61 -12 -60 -20 13 -10 88
0 343 15 415 16 71 34 106 79 153 84 89 206 118 294 71z m1001 -4 c62 -29 122
-89 146 -144 34 -75 52 -352 33 -491 l-6 -48 -20 54 c-11 30 -47 94 -79 142
-75 112 -97 174 -108 310 -10 121 -23 172 -47 181 -12 5 -14 2 -8 -16 3 -13
11 -61 16 -108 26 -230 33 -251 135 -404 80 -121 103 -231 64 -304 -29 -54
-39 -65 -104 -110 -107 -76 -272 -92 -430 -42 -58 18 -79 32 -128 81 l-59 59
3 232 c3 222 4 236 27 288 14 30 38 72 54 92 58 73 250 220 322 246 46 18 134
9 189 -18z m-1385 -802 c31 -82 97 -150 187 -194 52 -26 74 -43 74 -55 0 -11
-25 -83 -56 -161 -102 -264 -136 -447 -115 -633 17 -152 55 -293 116 -427 l53
-117 -48 1 c-122 3 -165 -105 -164 -412 0 -144 4 -185 32 -320 18 -91 33 -205
37 -275 3 -66 9 -131 12 -145 17 -72 79 -147 145 -174 47 -20 79 -20 125 -1
20 8 38 13 40 11 3 -3 -22 -118 -56 -258 -76 -317 -88 -379 -102 -539 -11
-125 -6 -219 10 -219 5 0 12 39 15 88 16 217 19 238 27 212 15 -43 24 -252 15
-328 -7 -64 -5 -80 13 -125 34 -80 37 -126 12 -175 -33 -66 -56 -75 -164 -70
-102 5 -158 26 -197 75 -11 15 -51 48 -87 74 -36 26 -74 60 -84 76 -27 41 -24
95 6 132 24 28 152 107 160 99 3 -2 0 -34 -6 -72 -11 -68 -9 -83 10 -72 20 13
34 126 34 286 -1 246 -14 317 -122 660 -105 331 -115 384 -108 579 6 185 30
291 134 606 65 199 65 200 59 284 -3 45 -22 160 -41 255 -19 94 -45 225 -59
291 -37 186 -51 317 -50 480 1 170 7 217 66 510 40 196 43 207 49 160 4 -27
17 -76 28 -107z m1640 -68 c85 -468 83 -626 -14 -1105 -60 -295 -77 -418 -69
-485 4 -30 24 -107 46 -170 68 -197 117 -371 133 -470 28 -177 13 -447 -30
-531 -8 -14 -11 -30 -7 -34 4 -5 1 -5 -5 -1 -7 4 -22 -2 -34 -13 -44 -41 -144
-36 -184 9 -10 11 -23 20 -28 20 -6 0 2 -14 18 -30 53 -56 142 -64 199 -19
l27 21 -7 -28 c-4 -16 -31 -103 -60 -194 -29 -91 -62 -207 -74 -257 -49 -224
-43 -653 10 -653 7 0 9 24 4 75 -4 41 -4 75 0 75 12 0 140 -85 154 -103 8 -9
16 -34 19 -55 7 -52 -16 -93 -73 -134 -26 -18 -73 -57 -104 -86 -69 -63 -122
-82 -228 -84 -84 -1 -112 13 -143 72 -26 48 -24 91 10 168 27 62 29 71 19 122
-12 62 -3 315 11 352 6 14 10 17 11 8 1 -8 7 -82 13 -164 8 -102 16 -151 25
-154 9 -3 12 14 12 65 0 155 -32 347 -116 706 -31 131 -55 240 -52 242 2 2 24
-3 48 -11 77 -27 152 -2 212 71 53 63 60 89 68 259 6 111 17 203 36 296 52
247 35 580 -33 661 -28 33 -86 52 -131 43 l-31 -6 39 73 c111 213 165 477 141
689 -14 130 -39 219 -109 402 -33 86 -62 166 -64 178 -2 18 6 26 46 42 118 46
187 121 224 242 12 41 22 85 23 98 1 20 2 19 10 -7 4 -16 22 -104 38 -195z
m-719 -119 c39 -18 100 -38 135 -44 57 -10 64 -13 60 -31 -2 -12 -11 -75 -19
-141 -33 -265 -39 -347 -30 -434 12 -128 9 -189 -19 -371 -35 -225 -42 -300
-28 -300 6 0 11 10 11 23 0 32 67 458 73 464 10 10 86 -98 108 -154 21 -53 23
-75 24 -233 l0 -175 -43 -87 c-31 -61 -47 -109 -56 -164 l-12 -78 -31 80 c-71
180 -91 275 -119 564 -17 177 -29 238 -92 480 -44 172 -60 287 -69 525 l-6
160 21 -26 c11 -14 53 -40 92 -58z m-174 -53 c-14 -258 -40 -449 -80 -590 -49
-169 -65 -246 -76 -368 -29 -331 -48 -435 -118 -629 l-37 -104 -11 84 c-12 87
-30 141 -62 187 -29 40 -42 119 -42 251 0 162 23 253 88 337 26 34 48 61 50
60 6 -6 61 -364 68 -440 4 -49 10 -73 15 -65 11 18 5 75 -32 324 -29 193 -30
204 -18 317 14 127 7 229 -32 496 -10 73 -19 135 -19 136 0 2 28 7 61 10 83
10 158 39 205 81 21 19 41 34 43 35 2 0 0 -55 -3 -122z m529 -35 c4 -21 15
-58 25 -83 109 -266 131 -354 138 -536 5 -163 -12 -286 -58 -426 -28 -83 -107
-254 -115 -247 -2 2 1 27 7 54 12 62 3 208 -19 295 -18 74 -45 129 -107 217
-41 57 -45 67 -51 145 -7 85 3 235 31 456 9 68 14 132 11 142 -4 17 2 19 57
22 33 2 64 2 67 1 4 -2 10 -20 14 -40z m-859 7 c2 -14 12 -98 24 -188 22 -175
27 -422 10 -483 -6 -20 -35 -70 -64 -110 -30 -40 -62 -96 -71 -123 -26 -81
-39 -244 -27 -328 6 -40 9 -74 7 -76 -8 -8 -84 157 -110 237 -48 147 -65 254
-65 408 0 126 3 155 30 260 17 65 47 156 66 203 20 47 46 118 57 158 l22 73
59 -3 c55 -3 60 -5 62 -28z m-129 -1367 c18 -8 42 -30 53 -48 44 -71 51 -113
55 -305 4 -199 6 -212 59 -398 30 -102 36 -140 36 -217 0 -163 -29 -242 -102
-278 -69 -34 -149 1 -202 86 -27 44 -30 57 -37 185 -4 82 -20 202 -38 299 -27
138 -31 185 -32 320 0 156 16 286 41 333 25 47 95 56 167 23z m1137 -13 c74
-89 86 -369 26 -655 -24 -113 -33 -184 -36 -287 -4 -154 -13 -184 -69 -246
-45 -50 -115 -70 -168 -48 -83 34 -112 120 -104 306 4 98 10 132 42 230 37
113 38 118 46 330 4 118 12 231 18 250 32 103 87 150 173 150 39 0 50 -5 72
-30z"/>
<path d="M10152 2186 c5 -29 51 -58 101 -63 37 -5 54 -1 90 20 45 26 78 69 37
47 -10 -5 -22 -14 -25 -20 -3 -5 -24 -14 -47 -21 -51 -13 -121 3 -144 35 -14
19 -15 19 -12 2z"/>
<path d="M10341 1593 c52 -202 151 -483 171 -483 6 0 7 8 3 18 -26 65 -119
339 -150 445 -21 70 -41 127 -45 127 -4 0 6 -48 21 -107z"/>
<path d="M11771 1618 c-13 -45 -56 -178 -96 -295 -40 -117 -69 -213 -64 -213
20 0 40 54 130 349 56 186 70 241 60 241 -5 0 -18 -37 -30 -82z"/>
<path d="M11040 7190 c0 -838 4 -1440 9 -1440 5 0 12 7 15 16 3 9 6 657 6
1440 0 1259 -2 1424 -15 1424 -13 0 -15 -167 -15 -1440z"/>
<path d="M10970 8270 c-69 -38 -180 -80 -268 -102 -49 -13 -90 -27 -90 -33 -3
-41 361 84 407 139 19 23 -4 21 -49 -4z"/>
<path d="M11092 8278 c13 -38 251 -132 386 -153 47 -8 60 11 15 21 -125 28
-246 70 -345 120 -54 27 -61 29 -56 12z"/>
<path d="M11100 6763 c0 -10 43 -86 98 -174 47 -77 189 -357 224 -444 14 -33
38 -95 54 -137 16 -44 35 -78 43 -78 17 0 11 25 -36 144 -45 117 -143 322
-217 455 -95 172 -167 273 -166 234z"/>
</g>
</svg>
